<?xml version="1.0" encoding="utf-8"?>
<!-- Generator: Adobe Illustrator 23.0.1, SVG Export Plug-In . SVG Version: 6.00 Build 0)  -->
<svg version="1.1" id="Layer_1" xmlns="http://www.w3.org/2000/svg" xmlns:xlink="http://www.w3.org/1999/xlink" x="0px" y="0px"
	 viewBox="0 0 337.2 122.71" style="enable-background:new 0 0 337.2 122.71;" xml:space="preserve" fill="#fff">
<g>
	<polygon points="268.17,6.41 247.67,41.89 288.65,41.89 	"/>
	<polygon points="270.38,78.98 290.22,44.62 310.07,78.98 	"/>
	<polygon points="291.25,117.25 332.21,117.25 311.74,81.76 	"/>
	<polygon points="287.06,44.72 268.17,77.42 249.28,44.72 	"/>
	<polygon points="271.33,81.78 290.24,114.51 309.09,81.78 	"/>
	<polygon points="247.66,117.25 288.65,117.25 268.18,81.76 	"/>
	<polygon points="226.25,78.98 246.12,44.62 265.97,78.98 	"/>
	<polygon points="227.24,81.78 246.12,114.51 265.02,81.78 	"/>
	<polygon points="204.16,117.3 245.16,117.3 224.64,81.78 	"/>
	<path d="M39.59,97.94h10.48c14.13,0,17.4-16.54,17.4-23.7c0-11.64-5.42-14.77-12.73-14.77h-7.94L39.59,97.94z M28.73,40.11h32.43
		c13.08,0,29.05,8.86,27.95,34.05c-1.28,25.61-15.75,43.14-40.27,43.14H14.07L28.73,40.11z"/>
	<polygon points="105.88,40.11 91.31,117.3 144.1,117.3 147.81,98.28 116.72,98.28 127.52,40.11 	"/>
	<polygon points="165.97,40.11 151.29,117.3 172.96,117.3 178.06,90.85 205.74,90.85 209.21,72.46 181.49,72.46 183.86,59.85 
		216.47,59.85 220.22,40.11 	"/>
</g>
</svg>
