<?xml version="1.0" encoding="UTF-8"?> <!-- Generator: Adobe Illustrator 16.0.0, SVG Export Plug-In . SVG Version: 6.00 Build 0) --> <svg xmlns="http://www.w3.org/2000/svg" xmlns:xlink="http://www.w3.org/1999/xlink" version="1.1" id="Layer_1" x="0px" y="0px" width="245px" height="153px" viewBox="0 0 245 153" xml:space="preserve"> <g> <path fill="#FFFFFF" d="M155.953,29.35h-0.018c-2.276-6.662-7.452-8.877-7.854-9.029c0.259-1.639,0.276-3.473-0.084-5.457V14.86 l0,0c-1.573-1.352-3.198-2.262-4.762-2.869c0.115-0.852,0.626-6.129-3.632-11.27l-0.008,0.014 c-6.854-1.344-11.346,2.08-11.649,2.334c-1.282-1.012-2.823-1.934-4.683-2.607h-0.008c-1.927,0.695-3.517,1.658-4.824,2.721 c-0.646-0.52-4.931-3.619-11.499-2.465l0.014,0.014c-4.706,5.467-3.852,11.248-3.845,11.363c-1.516,0.602-3.079,1.51-4.614,2.811 l0,0l0,0h-0.007h0.007c-0.366,2.062-0.338,3.949-0.073,5.633c-0.881,0.371-5.569,2.574-7.824,8.799h0.004 c2.311,6.758,7.576,8.93,7.822,9.027c-0.246,1.645-0.261,3.461,0.104,5.443l0,0l0,0l0,0c1.602,1.371,3.234,2.283,4.822,2.896 c-0.135,1.057-0.494,6.189,3.642,11.199l0.003-0.016c6.716,1.32,11.112-1.898,11.584-2.275c1.283,1.023,2.843,1.953,4.714,2.635 h0.01c1.964-0.709,3.57-1.691,4.894-2.77c0.846,0.66,5.053,3.535,11.404,2.41h-0.01c4.521-5.262,3.91-10.74,3.839-11.268 c1.529-0.617,3.085-1.504,4.611-2.812l0,0l0,0l0,0c0.367-2.066,0.325-3.963,0.049-5.652 C148.894,37.831,153.667,35.641,155.953,29.35 M146.194,15.911c0.034,0.084,2.19,6.221-2.416,12.719 c-2.214-5.162-6.942-6.648-7.422-6.785c-0.014-0.018-0.047-0.027-0.055-0.051c0.067-0.307,1.322-5.436-2.278-10.127 C141.972,10.866,146.175,15.881,146.194,15.911 M117.306,36.264c1.915,0.482,3.532,0.215,3.865,0.145 c0.521,0.617,1.217,1.264,2.141,1.871c0,0,1.177-0.604,2.121-1.844c0.654,0.088,2.32,0.246,4.17-0.33 c-1.531,5.648-6.061,7.234-6.163,7.264l0,0C123.439,43.37,118.902,41.836,117.306,36.264 M110.613,37.258 c3.407,2.799,7.41,2.369,7.41,2.369c-0.054-0.076-0.143-0.33-0.143-0.33c-3.834-0.129-6.564-2.938-6.589-2.943 c-0.018-0.021-1.038-4.104,0.711-7.182c0,0-0.166-0.205-0.191-0.289c0,0-2.358,3.236-1.633,7.641 c-5.283-2.404-6.129-7.092-6.147-7.129c0.019-0.016,0.864-4.738,6.189-7.137l0.054-0.375c-0.493,5.432,2.588,8.549,3.99,9.668 c-0.227,0.953-0.324,2.01-0.168,3.127l0,0h0.017c0.938,0.758,1.927,1.213,2.876,1.492c0.205,1.602,1.152,5.859,5.841,8.268 c-4.698,3.41-9.134,1.803-9.164,1.791c-0.015-0.014-3.647-3.111-3.053-8.969V37.258z M121.427,20.624 c0.985-0.678,1.816-0.965,1.838-0.986c0.021,0.021,0.912,0.354,1.959,1.119h-0.009l0.044,0.006c0.944,0.699,2.042,1.76,2.695,3.244 c-2.27-0.492-3.873,0.486-4.021,0.604c-1.74-1.156-3.707-1.084-5.223-0.746c0.663-1.498,1.721-2.523,2.664-3.197l0.071-0.033 C121.445,20.633,121.44,20.633,121.427,20.624 M126.404,31.983c2.379-0.775,3.435-2.336,3.897-3.756 c1.881,2.705,1.254,5.908,1.254,5.947c-0.035,0.021-2.634,2.184-5.887,1.932c0.678-1.043,1.131-2.441,0.719-4.229 c0,0-0.293-0.992-1.08-1.709c0.101-0.203,0.159-0.342,0.159-0.342c1.173-3.055-1.177-4.953-1.177-4.953 c-0.062-0.059-0.121-0.084-0.191-0.143l0.129,0.078c3.467-1.42,5.552,0.814,5.552,0.814c0.544,4.342-2.528,5.771-3.433,6.092 L126.404,31.983z M114.917,31.95c0.127-1.312,0.523-2.953,1.625-4.293c0.755,2.857,2.812,4.059,3.064,4.195 c-0.041,0.285-0.062,0.592-0.062,0.908c0,0-0.015,1.52,1.352,3.32l-0.022-0.025c-3.369,0.408-5.9-1.824-5.947-1.859 c-0.01-0.021-0.13-0.932-0.015-2.176l0.005,0.014V31.95z M120.1,31.479c0,0,0.218-1.887,2.253-3.398l-0.018-0.344 c0,0-2.201,1.207-2.695,3.906c-3.006-2.219-2.494-6.172-2.494-6.172c2.804-1.949,5.631-0.936,5.631-0.936 c3.704,1.748,2.281,5.168,2.281,5.168c-0.303,0.766-0.645,0.961-0.645,0.961c-0.736,0.611-1.355,0.25-1.355,0.25 c-0.646-0.355-0.58-0.918-0.58-0.918c0.039-0.881,0.695-0.824,0.695-0.824c0.276,0.027,0.312,0.178,0.312,0.178 c0.103,0.262-0.161,0.312-0.161,0.312v0.154c0.193,0,0.302-0.205,0.302-0.205c0.177-0.439-0.191-0.598-0.191-0.598 c-0.776-0.285-1.144,0.51-1.144,0.51c-0.307,0.555,0.018,1.174,0.018,1.174c0.657,1.168,1.941,0.59,1.941,0.59 c0.406-0.236,0.691-0.574,0.884-0.85c0.067,0.041,2.03,1.578,0.157,4.998c-0.375,0.689-1.062,1.311-2.005,1.824 C123.285,37.26,119.404,35.311,120.1,31.479 M118.25,23.991c-1.172,0.318-1.949,0.758-1.949,0.758c-0.068,0.908,0,1.713,0.124,2.41 c-0.122,0.156-1.439,1.742-2.063,4.018c-3.794-4.105-2.927-8.658-2.919-8.756h0.025c0,0,3.492-3.127,8.963-1.861 C118.962,22.04,118.352,23.663,118.25,23.991 M110.587,21.524c-0.576-5.84,3.034-8.926,3.034-8.926 c0.062-0.012,4.503-1.623,9.191,1.809c-3.617,1.418-5.294,4.486-5.615,5.145C115.312,19.469,112.983,19.879,110.587,21.524 M129.922,36.002c0.813-0.275,1.657-0.713,2.452-1.352h0.009l0,0c0.159-1.053,0.085-2.031-0.069-2.912 c0.555-0.441,1.453-1.26,2.289-2.461c1.666,3.346,0.652,7.012,0.644,7.033c-0.013,0.004-2.837,2.793-6.237,2.955 C129.637,37.874,129.854,36.649,129.922,36.002 M132.219,31.383c-0.454-1.871-1.411-3.207-1.786-3.646 c0.325-1.361,0.154-2.49,0.154-2.49c-0.767-0.566-1.529-0.918-2.219-1.121c-0.04-0.127-0.625-1.859-2.155-3.447 c5.425-1.268,8.917,1.779,8.984,1.844h-0.009C135.188,22.522,136.146,27.213,132.219,31.383 M125.962,20.407 c-0.712-0.662-1.582-1.299-2.697-1.725v-0.004v0.004v-0.004v0.004c-1.039,0.41-1.889,0.988-2.555,1.625 c-0.681-0.285-1.77-0.629-3.13-0.73c2.039-3.182,5.703-4.139,5.735-4.143c0,0,4.036,1.139,5.793,4.203c0,0,0.261-0.047,0.362-0.043 c0,0-1.608-3.635-5.721-5.207c4.706-3.445,9.161-1.818,9.194-1.801c0.025,0.012,3.642,3.102,3.031,8.955l0.184,0.176 C131.776,18.606,127.585,19.756,125.962,20.407 M138.696,2.288L138.696,2.288c0.092,0.068,3.977,3.545,4.203,9.578 c-4.799-1.744-9.31-0.627-9.31-0.627c-0.111-0.264-1.315-4.592-5.376-7.963C133.647,0.45,138.696,2.288,138.696,2.288 M107.835,2.295l-0.01-0.008c0.121-0.037,5.037-1.703,10.324,1.121c-4.059,3.463-5.187,7.838-5.187,7.838l0.539-0.107 c3.288-7.373,9.704-8.566,9.763-8.576c0.102,0.023,6.49,1.211,9.737,8.576c-5.647-0.699-9.343,2.816-9.636,3.102 c-0.025,0-0.043-0.018-0.043-0.018c-0.051,0.018-0.08,0.025-0.107,0.035c-0.312-0.303-4.301-4.084-10.333-2.982l0,0h-0.007h0.007 l-0.013,0.008c-0.322-0.078-4.567-1.15-9.433,0.684C103.732,5.77,107.835,2.295,107.835,2.295 M100.286,15.95 c0.021-0.018,4.249-5.07,12.237-4.225c-3.677,4.793-2.253,10.055-2.236,10.102l-0.013,0.018c-0.041,0.023-5.195,1.4-7.492,6.922 C98.079,22.233,100.257,16.036,100.286,15.95 M98.464,38.032c-5.14-3.354-6.068-8.682-6.068-8.682h-0.015 c0.024-0.121,1.053-5.225,6.095-8.441c0.9,5.008,3.85,8.105,4.109,8.373c-0.025,0.043-0.043,0.076-0.056,0.113l0,0v0.004 c0.013,0.025,0.013,0.051,0.03,0.084C102.115,29.944,99.294,33.079,98.464,38.032 M100.328,42.762 c-0.042-0.072-2.206-6.238,2.438-12.766c2.213,5.348,7.076,6.82,7.487,6.939v0.016c0.021,0.012,0.041,0.043,0.067,0.043 c-0.026,0.062-1.416,5.244,2.16,10.01C104.542,47.799,100.345,42.799,100.328,42.762 M107.9,56.327h-0.009 c-0.09-0.072-3.943-3.504-4.194-9.496c4.526,1.631,8.491,0.771,9.127,0.615c0.038,0.035,0.059,0.068,0.084,0.102l0,0l0,0h0.013 c0.028,0.012,0.062,0.012,0.104,0.02c0.193,0.68,1.482,4.66,5.275,7.822C112.862,58.19,107.9,56.327,107.9,56.327 M123.295,56.161 c-0.079-0.023-6.443-1.203-9.712-8.504c5.455,0.682,9.096-2.551,9.615-3.043c0.074,0.029,0.158,0.07,0.241,0.113v0.002 c0.025-0.012,0.052-0.02,0.081-0.033c0.815,0.732,4.35,3.58,9.481,2.943C129.737,54.958,123.366,56.137,123.295,56.161 M138.696,56.313h0.009c-0.116,0.055-4.974,1.691-10.24-1.068c3.686-3.176,4.923-7.082,5.1-7.697c0.049,0,0.083-0.008,0.13-0.021 c0.011-0.031,0.037-0.045,0.062-0.076c0.744,0.189,4.78,1.012,9.334-0.715C142.782,52.893,138.696,56.313,138.696,56.313 M146.224,42.756c-0.029,0.043-4.212,5.031-12.115,4.248c3.6-4.799,2.177-10.029,2.177-10.029l-0.31,0.262 c0.61,5.852-3.006,8.939-3.031,8.979c0,0-4.385,1.584-9.037-1.707c2.623-1.311,4.113-3.205,4.951-4.895 c0.962,0.025,4.447-0.039,7.427-2.705h0.017c0.812-4.043-1.021-7.229-1.492-7.963c0.998-1.604,1.802-3.82,1.585-6.705 c5.315,2.381,6.163,7.109,6.163,7.139c0,0.02-0.848,4.74-6.163,7.139l-0.085,0.4c0,0,5.184-1.35,7.503-6.867 C148.4,36.549,146.24,42.69,146.224,42.756 M148.033,37.797c-0.853-4.691-3.476-7.719-4.021-8.281 c0.025-0.053,0.034-0.092,0.061-0.137l0,0c-0.035-0.072-0.061-0.15-0.093-0.225c0.543-0.562,3.265-3.67,4.07-8.502 c5.132,3.346,6.102,8.684,6.102,8.684h0.01C154.129,29.463,153.107,34.586,148.033,37.797"></path> <path fill="#FFFFFF" d="M45.675,105.842c-1.942-0.262-4.449-1.256-6.239-0.418c-0.358,0.137-1.247,0.781-1.507,1.057 c0.185-0.275,0.185-0.195,0-0.01c0.17-0.266,0.369-0.541,0.638-0.812c1.348-1.361,3.298-2.475,5.174-2.066 c3.374,0.76,4.464,1.699,5.761,0.078C49.501,103.67,48.324,106.236,45.675,105.842"></path> <path fill="#FFFFFF" d="M212.427,106.906c-1.925-0.281-4.438-1.277-6.212-0.426c-0.368,0.145-1.264,0.773-1.522,1.045 c0.182-0.271,0.182-0.188,0-0.012c0.153-0.26,0.367-0.533,0.636-0.801c1.355-1.373,3.315-2.486,5.174-2.068 c3.366,0.75,4.463,1.699,5.752,0.08C216.254,104.725,215.087,107.289,212.427,106.906"></path> <path fill="#FFFFFF" d="M19.843,109.201c-0.209,0.523-0.334,0.756-0.408,0.846c-1.302,1.674-3.408,2.514-6.256,2.508 c-3.395-0.027-6.06-1.244-7.946-3.609c-1.698-2.105-2.544-4.795-2.527-7.996c0.008-2.811,0.878-5.113,2.545-6.803 c1.662-1.699,3.925-2.551,6.689-2.543c2.346,0.016,4.266,0.545,5.729,1.564c0.375,0.271,0.689,0.717,0.952,1.369 c0.089,0.291,0.18,0.623,0.26,0.951l0.418-0.012c0.121-0.77,0.21-1.398,0.257-1.848c0.018-0.32,0.018-0.807-0.029-1.469v-0.145 l-0.145-0.043c-0.468-0.15-0.911-0.262-1.271-0.354c-2.122-0.678-4.24-1.037-6.313-1.049c-2.956-0.018-5.551,0.916-7.695,2.779 c-2.482,2.166-3.768,5.146-3.784,8.875c-0.025,3.17,0.922,5.787,2.818,7.787c2.232,2.342,5.563,3.551,9.879,3.578 c1.211,0.012,2.459-0.098,3.703-0.279c1.053-0.176,1.713-0.324,2.013-0.465c0.095-0.035,0.218-0.07,0.352-0.113 c0.188-0.037,0.292-0.074,0.368-0.09l0.076-0.029l0.047-0.086c0.125-0.301,0.278-0.766,0.446-1.451 c0.125-0.783,0.208-1.387,0.239-1.801L19.843,109.201z"></path> <path fill="#FFFFFF" d="M95.157,113.256c-0.891-1.016-1.414-2.223-1.57-3.574l-1.741-14.84c-0.033-0.4-0.045-0.771-0.045-1.141 c0.002-0.49,0.124-0.818,0.325-1.002l1.169-0.729l-0.114-0.4c-1.158,0.086-1.912,0.113-2.245,0.113 c-0.384,0-1.011-0.057-1.846-0.133l-0.555-0.064l0.372,0.416c0.344,0.389,0.518,0.729,0.518,1.029c0,0.236-0.17,0.857-0.967,2.492 l-6.939,14.107l-6.777-14.883c-0.508-1.113-0.775-2.115-0.758-2.982V91.42l-0.234,0.029c-0.628,0.094-1.124,0.111-1.499,0.111 c-0.476,0-1.198-0.045-2.135-0.129l-0.742-0.061l0.603,0.434c1.487,1.156,1.726,1.693,1.726,1.926c0,0.08-0.055,0.422-0.331,1.812 l-2.763,14.146c-0.339,1.754-0.511,2.32-0.603,2.482c-0.021,0.068-0.185,0.26-0.926,0.885l-0.511,0.436l0.657-0.051 c0.925-0.084,1.523-0.113,1.758-0.113c0.457,0,1.063,0.041,1.811,0.133l0.762,0.088l-0.62-0.473 c-0.82-0.629-0.885-0.893-0.885-0.963c0-0.934,0.08-1.783,0.218-2.494c0.219-1.156,1.102-5.623,2.664-13.412l8.188,17.953 l8.54-17.648l1.766,13.295c0.164,1.432,0.206,1.857,0.197,1.965c0,0.412-0.205,0.906-0.606,1.477l-0.272,0.385l0.465-0.041 c0.824-0.076,1.469-0.113,1.895-0.113c0.482,0,1.102,0.051,1.869,0.133l0.547,0.059L95.157,113.256z"></path> <path fill="#FFFFFF" d="M118.085,111.625c-0.229,0.229-0.464,0.4-0.664,0.51c-0.562,0.297-1.817,0.453-3.76,0.439l-2.877-0.02 l0.065-9.58l3.299,0.018c0.825,0,1.53,0.281,2.101,0.807l0.415,0.404l-0.056-0.578c-0.066-0.555-0.094-1.02-0.085-1.375 l0.009-2.131l-0.391,0.59c-0.428,0.662-1.106,0.98-2.053,0.977l-3.232-0.039l0.044-8.686c0.446-0.006,0.895-0.006,1.337,0 c1.876,0.004,3.366,0.08,3.738,0.176c0.588,0.303,1.014,0.539,1.229,0.762l0.436,0.406l-0.073-0.59 c-0.091-0.6-0.204-0.998-0.369-1.252c-0.346-0.49-0.722-0.736-1.111-0.736c-0.235,0-2.101,0-3.63,0.037 c-1.467,0.025-2.41,0.041-2.662,0.041c-0.44,0-1.089-0.055-1.914-0.133l-0.74-0.076l0.586,0.457 c0.393,0.293,0.658,0.633,0.77,0.961c0.109,0.289,0.139,0.824,0.139,1.592l-0.107,15.943c0,1.256-0.098,1.746-0.177,1.959 c-0.021,0.053-0.14,0.268-0.766,0.809l-0.495,0.422l0.648-0.051c0.959-0.07,1.611-0.098,1.906-0.098 c0.088,0,0.577,0.012,2.88,0.121c1.784,0.084,3.231,0.125,4.328,0.129c0.511,0,1.018-0.633,1.573-1.982L118.085,111.625z"></path> <path fill="#FFFFFF" d="M143.535,111.361c-0.343,0.316-0.628,0.58-0.816,0.744c-0.741,0.41-2.285,0.604-4.607,0.59 c-0.955,0-2.136-0.082-3.5-0.219l0.114-17.711c0-1.203,0.388-2.025,1.166-2.529l-0.137-0.393c-1.021,0.074-1.766,0.113-2.209,0.105 c-0.409,0-1.078-0.047-1.99-0.131l-0.135,0.389c0.712,0.459,1.047,1.303,1.047,2.537l-0.111,16.484 c-0.007,0.818-0.107,1.174-0.191,1.332c-0.032,0.082-0.197,0.299-0.87,0.918l-0.465,0.398l0.615-0.037 c1.056-0.07,1.721-0.115,2.023-0.115c0.915,0.014,2.38,0.07,4.349,0.152c2.041,0.096,3.399,0.148,4.16,0.154 c0.471,0,0.906-0.32,1.307-0.98c0.315-0.734,0.506-1.221,0.599-1.469L143.535,111.361z"></path> <path fill="#FFFFFF" d="M168.825,111.516c-0.355,0.318-0.639,0.576-0.816,0.754c-0.736,0.402-2.283,0.613-4.604,0.59 c-0.969-0.01-2.143-0.084-3.501-0.217l0.107-17.727c0.011-1.186,0.391-2.01,1.174-2.52l-0.126-0.387 c-1.037,0.066-1.785,0.113-2.227,0.098c-0.41,0-1.072-0.037-1.984-0.135l-0.143,0.406c0.703,0.436,1.055,1.295,1.055,2.52 l-0.104,16.486c0,0.812-0.122,1.17-0.207,1.336c-0.041,0.086-0.198,0.301-0.871,0.912l-0.451,0.412l0.611-0.043 c1.057-0.08,1.725-0.115,2.027-0.111c0.903,0,2.368,0.053,4.354,0.154c2.026,0.09,3.386,0.139,4.151,0.146 c0.469,0,0.887-0.318,1.298-0.984c0.319-0.732,0.511-1.211,0.601-1.461L168.825,111.516z"></path> <path fill="#FFFFFF" d="M186.102,113.824c-0.616-0.467-0.919-1.211-0.902-2.268l0.103-17.303c0.019-0.867,0.275-1.432,0.81-1.689 l-0.104-0.404c-0.758,0.076-1.386,0.113-1.821,0.113c-0.427-0.004-1.067-0.041-1.899-0.137l-0.109,0.41 c0.604,0.268,0.879,0.828,0.879,1.703l-0.108,17.316c-0.01,1.072-0.314,1.791-0.943,2.238l-0.655,0.469l0.802-0.082 c0.86-0.094,1.482-0.141,1.917-0.141c0.441,0,1.082,0.059,1.877,0.17l0.787,0.086L186.102,113.824z"></path> <path fill="#FFFFFF" d="M242.243,104.002c-1.481-1.186-2.956-2.371-4.418-3.537c-1.523-1.32-2.292-2.611-2.288-3.812 c0-0.934,0.337-1.766,0.997-2.432c0.668-0.699,1.48-1.037,2.492-1.021c0.723,0,1.449,0.158,2.145,0.502 c0.703,0.332,1.258,0.789,1.601,1.336c0.275,0.648,0.477,1.152,0.594,1.494l0.42-0.07c0.021-0.645,0.031-1.15,0.042-1.482 c0-0.33,0.031-0.758,0.091-1.277l0.017-0.166l-0.16-0.051c-0.381-0.135-0.572-0.195-0.656-0.248 c-3.369-1.432-6.039-1.197-7.748,0.695c-0.979,1.07-1.475,2.395-1.483,3.922c-0.003,1.592,0.804,3.074,2.396,4.436l4.361,3.242 c1.507,1.332,2.27,2.811,2.258,4.402c0,1.082-0.466,1.975-1.403,2.689c-0.854,0.688-1.745,1.01-2.646,1.01 c-1.508-0.004-2.729-0.385-3.618-1.105c-0.468-0.393-0.854-0.879-1.144-1.477c-0.12-0.281-0.207-0.566-0.296-0.83l-0.41,0.057 c0.024,1.129,0.083,1.965,0.173,2.514c0.107,0.604,0.237,0.979,0.438,1.168l0.118,0.135l0.141-0.092c0,0,0.043-0.025,0.178-0.025 c0.132,0.014,0.299,0.033,0.497,0.055c0.59,0.129,1.169,0.242,1.755,0.381c0.761,0.154,1.486,0.23,2.101,0.23 c1.624,0.008,3.022-0.611,4.169-1.809c1.131-1.215,1.719-2.615,1.729-4.191C244.688,107.057,243.876,105.504,242.243,104.002"></path> <path fill="#FFFFFF" d="M221.806,112.971c-0.356-0.328-0.719-0.865-1.056-1.586l-9.37-19.99l-9.703,19.871 c-0.52,1.029-1.355,1.906-2.478,2.607l0.134,0.393c0.811-0.07,1.543-0.1,2.135-0.1c0.48,0,1.188,0.039,2.092,0.133l0.545,0.055 l-0.367-0.41c-0.629-0.695-0.729-1-0.729-1.133c0-0.408,0.117-0.885,0.343-1.395l1.42-3.096l6.141-13.094l5.626,12.279l0.389,0.877 l1.237,3.133c0.226,0.576,0.351,1.1,0.351,1.561c0,0.318-0.207,0.635-0.588,0.934l-0.535,0.43l0.699-0.053 c0.921-0.08,1.688-0.121,2.241-0.121c0.526,0.008,1.507,0.062,2.946,0.15l0.122-0.391 C222.524,113.492,221.98,113.148,221.806,112.971"></path> <path fill="#FFFFFF" d="M54.57,111.926c-0.339-0.34-0.696-0.863-1.044-1.596l-9.375-19.98l-9.714,19.869 c-0.51,1.02-1.348,1.912-2.462,2.609l0.125,0.391c0.817-0.07,1.55-0.113,2.145-0.113c0.479,0.004,1.185,0.049,2.091,0.141 l0.556,0.064l-0.386-0.428c-0.633-0.686-0.725-0.994-0.725-1.111c0-0.428,0.116-0.893,0.348-1.402l1.415-3.104l6.139-13.1 l5.634,12.291l0.394,0.881l1.223,3.117c0.233,0.592,0.356,1.102,0.334,1.57c0,0.322-0.184,0.633-0.552,0.934l-0.552,0.436 l0.702-0.059c0.925-0.08,1.677-0.109,2.226-0.109c0.538,0.006,1.521,0.061,2.958,0.143l0.125-0.398 C55.29,112.443,54.754,112.092,54.57,111.926"></path> <g> <path fill="#FFFFFF" d="M113.042,71.221c-0.272-0.48-0.846-0.746-1.726-0.746l-3.659-0.033l-0.066,11.855 c0,0.467,0.093,0.85,0.27,1.129c0.02,0.004,0.171,0.168,0.452,0.455c-0.521-0.047-0.979-0.082-1.328-0.082 c-0.36,0-0.799,0.02-1.318,0.068c0.501-0.234,0.761-0.758,0.771-1.57l0.075-11.855l-3.693-0.027 c-0.813-0.006-1.387,0.244-1.7,0.754c0.009-0.205,0.04-0.482,0.113-0.84c0.215-0.379,0.438-0.582,0.707-0.582 c2.763,0.086,4.483,0.119,5.176,0.119c2.104,0.008,3.79,0,5.064-0.033c0.276-0.025,0.503,0.143,0.712,0.51 C112.996,70.51,113.058,70.811,113.042,71.221"></path> <path fill="#FFFFFF" d="M130.743,84.033c-0.424-0.068-0.821-0.098-1.207-0.098c-0.753,0-1.168,0.014-1.29,0.066 c0.271-0.232,0.452-0.428,0.503-0.572c0.136-0.266,0.214-0.662,0.214-1.199l0.038-5.621l-8.395-0.057l-0.042,5.505 c0,0.545,0.019,0.902,0.072,1.088c0.089,0.283,0.288,0.564,0.61,0.818c-0.46-0.059-0.887-0.084-1.28-0.098 c-0.327,0-0.83,0.035-1.504,0.082c0.334-0.199,0.575-0.416,0.694-0.68c0.14-0.275,0.216-0.686,0.216-1.283l0.052-10.187 c0.018-0.578-0.002-0.938-0.044-1.096c-0.075-0.324-0.272-0.607-0.584-0.838c0.532,0.049,0.943,0.084,1.245,0.084 c0.301,0,0.684-0.021,1.193-0.084c-0.239,0.246-0.397,0.451-0.457,0.631c-0.096,0.244-0.142,0.688-0.159,1.303l-0.013,4.094 l8.395,0.059l0.023-3.961c0-0.656-0.023-1.115-0.082-1.371c-0.084-0.26-0.244-0.494-0.516-0.705 c0.52,0.061,0.908,0.098,1.205,0.098c0.29,0,0.684-0.031,1.198-0.08c-0.289,0.193-0.474,0.41-0.548,0.684 c-0.034,0.178-0.057,0.645-0.059,1.389l-0.067,10.193c0,0.57,0.041,0.992,0.126,1.266C130.349,83.633,130.5,83.818,130.743,84.033 "></path> <path fill="#FFFFFF" d="M143.883,82.945c-0.348,0.805-0.642,1.211-0.907,1.211c-0.724-0.01-1.659-0.02-2.814-0.084 c-1.145-0.057-1.791-0.084-1.871-0.084c-0.205,0-0.633,0.027-1.27,0.084c0.336-0.289,0.521-0.479,0.555-0.605 c0.075-0.197,0.125-0.631,0.125-1.32l0.058-10.404c0-0.51-0.023-0.867-0.083-1.068c-0.096-0.26-0.275-0.494-0.562-0.699 c0.544,0.053,0.972,0.088,1.26,0.088c0.164,0,0.751,0,1.738-0.035c1.004-0.012,1.565-0.016,1.717-0.016 c0.21,0,0.419,0.133,0.62,0.422c0.078,0.15,0.15,0.389,0.208,0.75c-0.149-0.15-0.435-0.318-0.847-0.525 c-0.372-0.096-1.322-0.129-2.836-0.105l-0.052,5.934l2.253,0.014c0.66,0.014,1.155-0.223,1.458-0.666v0.896 c0,0.238,0.007,0.552,0.044,0.917c-0.389-0.365-0.878-0.561-1.46-0.561l-2.295-0.025l-0.025,6.537l2.007,0.006 c1.285,0.012,2.131-0.102,2.519-0.295C143.57,83.23,143.72,83.109,143.883,82.945"></path> </g> <circle fill="#FFFFFF" cx="184.931" cy="147.227" r="1.466"></circle> <circle fill="#FFFFFF" cx="56.749" cy="147.227" r="1.465"></circle> <g> <g> <path fill="#FFFFFF" d="M69.869,152.576H68.89v-10.801h8.856v0.98h-7.877v3.758h4.938v0.979h-4.938V152.576z"></path> <path fill="#FFFFFF" d="M96.032,152.576h-1.095l-1.886-3.83h-5.561l-1.887,3.83h-1.094l5.271-10.801h0.979L96.032,152.576z M90.271,142.869l-2.29,4.898h4.566L90.271,142.869z"></path> <path fill="#FFFFFF" d="M104.612,152.576h-0.979v-10.801h0.979V152.576z"></path> <path fill="#FFFFFF" d="M123.157,152.576h-1.137l-2.707-4.607h-4.71v4.607h-0.979v-10.801h6.61c2.435,0,3.155,1.93,3.155,3.039 c0,2.533-2.017,3.082-2.953,3.154L123.157,152.576z M119.37,146.988c1.367,0,3.039-0.143,3.039-2.174 c0-1.742-1.469-2.059-2.175-2.059h-5.631v4.232H119.37z"></path> <path fill="#FFFFFF" d="M140.58,152.576h-0.98l-2.448-8.828h-0.029l-2.404,8.828h-0.98l-3.484-10.801h1.037l2.91,9.131h0.028 l2.419-9.131h0.979l2.479,9.131h0.028l2.88-9.131h1.038L140.58,152.576z"></path> <path fill="#FFFFFF" d="M161.284,152.576h-1.096l-1.886-3.83h-5.56l-1.887,3.83h-1.094l5.271-10.801h0.979L161.284,152.576z M155.523,142.869l-2.289,4.898h4.564L155.523,142.869z"></path> <path fill="#FFFFFF" d="M172.802,152.576h-0.98v-4.709l-4.854-6.092h1.268l4.076,5.143l4.076-5.143h1.266l-4.852,6.092V152.576z"></path> </g> </g> </g> </svg> 