<?xml version="1.0" encoding="utf-8"?>
<!-- Generator: Adobe Illustrator 23.0.1, SVG Export Plug-In . SVG Version: 6.00 Build 0)  -->
<svg version="1.1" id="Layer_1" xmlns="http://www.w3.org/2000/svg" xmlns:xlink="http://www.w3.org/1999/xlink" x="0px" y="0px"
	 viewBox="0 0 632.4 559.45" style="enable-background:new 0 0 632.4 559.45;" xml:space="preserve">
<style type="text/css">
	.st0{fill:none;stroke:#FFFFFF;stroke-miterlimit:10;}
</style>
<path class="st0" d="M632.4,279.86h-0.18c-22.02-64.46-72.09-85.88-75.98-87.36c2.52-15.86,2.68-33.58-0.81-52.79v-0.03
	c-15.23-13.09-30.95-21.88-46.08-27.77c1.12-8.25,6.06-59.3-35.12-109.04l-0.09,0.14C407.85-9.99,364.37,23.14,361.43,25.6
	c-12.41-9.8-27.32-18.71-45.3-25.23h-0.08c-18.64,6.72-34.02,16.04-46.67,26.33c-6.26-5.03-47.71-35.02-111.26-23.85l0.13,0.12
	c-45.52,52.89-37.27,108.83-37.2,109.93c-14.66,5.82-29.79,14.61-44.64,27.21c-3.55,19.94-3.27,38.2-0.71,54.49
	c-8.52,3.6-53.88,24.91-75.71,85.14h0.04c22.37,65.37,73.32,86.39,75.69,87.33c-2.37,15.92-2.53,33.49,0.99,52.68
	c15.51,13.26,31.29,22.08,46.66,28.01c-1.3,10.23-4.79,59.89,35.24,108.36l0.03-0.15c64.97,12.77,107.51-18.38,112.07-22.02
	c12.41,9.9,27.51,18.9,45.61,25.5h0.1c19-6.87,34.54-16.37,47.34-26.81c8.18,6.39,48.89,34.21,110.34,23.33h-0.09
	c43.75-50.91,37.84-103.92,37.14-109.02c14.79-5.97,29.85-14.55,44.61-27.2c3.55-19.99,3.15-38.35,0.47-54.69
	C564.09,361.91,610.28,340.73,632.4,279.86z"/>
</svg>
