<?xml version="1.0" encoding="utf-8"?>
<!-- Generator: Adobe Illustrator 16.0.0, SVG Export Plug-In . SVG Version: 6.00 Build 0)  -->
<!DOCTYPE svg PUBLIC "-//W3C//DTD SVG 1.1//EN" "http://www.w3.org/Graphics/SVG/1.1/DTD/svg11.dtd">
<svg version="1.1" id="Layer_1" xmlns="http://www.w3.org/2000/svg" xmlns:xlink="http://www.w3.org/1999/xlink" x="0px" y="0px"
	 width="89.56px" height="79.221px" viewBox="0 0 89.56 79.221" enable-background="new 0 0 89.56 79.221" xml:space="preserve">
<path fill="#FFFFFF" d="M89.557,39.733l-0.025-0.002c-3.092-9.133-10.182-12.184-10.73-12.395c0.363-2.25,0.393-4.765-0.094-7.48
	l0,0l0,0c-2.156-1.867-4.377-3.118-6.52-3.952c0.162-1.167,0.881-8.392-4.939-15.45l-0.006,0.019
	C57.85-1.395,51.689,3.277,51.27,3.631c-1.754-1.392-3.863-2.652-6.406-3.588h-0.012c-2.643,0.945-4.826,2.262-6.617,3.713
	c-0.885-0.712-6.746-4.974-15.75-3.416L22.5,0.357C16.04,7.834,17.188,15.756,17.2,15.913c-2.08,0.817-4.227,2.058-6.33,3.849l0,0
	l0,0h-0.012h0.012c-0.512,2.812-0.48,5.403-0.121,7.703C9.542,27.979,3.112,30.984,0.002,39.5h0.004
	c3.143,9.272,10.355,12.258,10.689,12.389c-0.34,2.256-0.375,4.748,0.121,7.465l0,0l0,0l0,0c2.191,1.881,4.424,3.141,6.598,3.984
	c-0.188,1.451-0.697,8.479,4.955,15.355l0.002-0.027c9.197,1.838,15.236-2.555,15.883-3.082c1.754,1.422,3.887,2.686,6.445,3.637
	h0.014c2.697-0.967,4.896-2.305,6.718-3.779c1.158,0.904,6.908,4.854,15.615,3.33l-0.01,0.002
	c6.211-7.188,5.391-14.697,5.297-15.422c2.092-0.84,4.232-2.049,6.32-3.836l0,0l0,0l0,0c0.514-2.828,0.465-5.43,0.09-7.742
	C79.854,51.329,86.41,48.344,89.557,39.733 M76.229,21.287c0.043,0.111,2.979,8.533-3.35,17.417
	c-3.016-7.081-9.494-9.139-10.145-9.322c-0.02-0.024-0.066-0.034-0.082-0.073c0.094-0.415,1.83-7.439-3.088-13.875
	C70.457,14.359,76.201,21.242,76.229,21.287 M36.583,49.081c2.617,0.672,4.838,0.299,5.297,0.209
	c0.705,0.848,1.664,1.732,2.928,2.568c0,0,1.609-0.824,2.908-2.514c0.893,0.125,3.174,0.34,5.717-0.441
	c-2.115,7.732-8.33,9.896-8.47,9.934l0,0C44.961,58.836,38.75,56.721,36.583,49.081 M27.407,50.417
	c4.656,3.852,10.148,3.277,10.148,3.277c-0.072-0.111-0.193-0.455-0.193-0.455c-5.252-0.189-8.984-4.045-9.02-4.061
	c-0.025-0.033-1.408-5.623,0.994-9.831c0,0-0.229-0.281-0.258-0.398c0,0-3.244,4.424-2.264,10.467
	c-7.229-3.314-8.377-9.748-8.398-9.793c0.023-0.02,1.201-6.492,8.504-9.758l0.076-0.513c-0.695,7.442,3.516,11.728,5.43,13.265
	c-0.311,1.295-0.451,2.738-0.236,4.275l0,0l0.021-0.004c1.283,1.047,2.637,1.676,3.939,2.059c0.27,2.197,1.561,8.033,7.975,11.348
	c-6.453,4.66-12.521,2.441-12.564,2.42c-0.02-0.01-4.988-4.266-4.156-12.291L27.407,50.417z M42.278,27.658
	c1.352-0.922,2.492-1.314,2.523-1.344c0.023,0.029,1.248,0.487,2.681,1.547l-0.014-0.002l0.061,0.008
	c1.289,0.959,2.791,2.411,3.682,4.452c-3.107-0.687-5.304,0.655-5.515,0.808c-2.377-1.582-5.078-1.494-7.152-1.031
	c0.916-2.054,2.365-3.449,3.664-4.375l0.102-0.047C42.309,27.674,42.295,27.674,42.278,27.658 M49.061,43.237
	c3.262-1.051,4.711-3.184,5.355-5.129c2.564,3.717,1.695,8.104,1.695,8.157c-0.047,0.027-3.615,2.982-8.072,2.627
	c0.934-1.43,1.561-3.338,0.998-5.797c0,0-0.398-1.363-1.473-2.34c0.137-0.281,0.219-0.467,0.219-0.467
	c1.617-4.184-1.6-6.792-1.6-6.792c-0.08-0.084-0.162-0.117-0.257-0.193l0.177,0.109c4.756-1.944,7.604,1.131,7.604,1.131
	c0.729,5.95-3.484,7.895-4.723,8.334L49.061,43.237z M33.321,43.163c0.182-1.797,0.725-4.045,2.246-5.875
	c1.018,3.917,3.838,5.569,4.182,5.756c-0.057,0.387-0.09,0.809-0.09,1.24c0,0-0.025,2.084,1.846,4.553l-0.031-0.029
	c-4.621,0.549-8.084-2.52-8.148-2.57c-0.012-0.027-0.176-1.279-0.01-2.979l0.006,0.012V43.163z M40.422,42.536
	c0,0,0.311-2.582,3.098-4.659l-0.02-0.465c0,0-3.016,1.643-3.705,5.344c-4.113-3.049-3.396-8.464-3.396-8.464
	c3.846-2.661,7.717-1.27,7.717-1.27c5.068,2.411,3.107,7.091,3.107,7.091c-0.418,1.049-0.889,1.32-0.889,1.32
	c-1.011,0.828-1.857,0.334-1.857,0.334c-0.881-0.486-0.787-1.258-0.787-1.258c0.055-1.207,0.953-1.124,0.953-1.124
	c0.377,0.035,0.432,0.24,0.432,0.24c0.135,0.358-0.229,0.426-0.229,0.426v0.213c0.264,0.002,0.418-0.281,0.418-0.281
	c0.242-0.598-0.26-0.819-0.26-0.819c-1.068-0.39-1.568,0.698-1.568,0.698c-0.426,0.752,0.016,1.602,0.016,1.602
	c0.898,1.605,2.654,0.816,2.654,0.816c0.561-0.318,0.951-0.779,1.217-1.162c0.094,0.062,2.775,2.164,0.203,6.852
	c-0.518,0.941-1.461,1.799-2.757,2.494C44.768,50.465,39.459,47.784,40.422,42.536 M37.917,32.261
	c-1.605,0.431-2.676,1.036-2.676,1.036c-0.096,1.246-0.006,2.349,0.166,3.304c-0.174,0.218-1.98,2.382-2.842,5.488
	c-5.189-5.624-3.982-11.864-3.977-11.997l0.035,0.003c0,0,4.795-4.276,12.289-2.524C38.897,29.597,38.055,31.818,37.917,32.261
	 M27.424,28.861c-0.77-8,4.184-12.226,4.184-12.226c0.086-0.015,6.178-2.208,12.588,2.517c-4.957,1.926-7.266,6.124-7.707,7.031
	C33.901,26.06,30.709,26.611,27.424,28.861 M53.867,48.758c1.119-0.375,2.27-0.969,3.365-1.838h0.012l0,0
	c0.223-1.447,0.121-2.785-0.088-3.992c0.766-0.604,1.998-1.717,3.145-3.364c2.273,4.583,0.871,9.606,0.863,9.639
	c-0.02,0.006-3.898,3.82-8.555,4.023C53.473,51.327,53.771,49.645,53.867,48.758 M57.029,42.438
	c-0.615-2.566-1.922-4.399-2.43-4.999c0.439-1.865,0.213-3.406,0.213-3.406c-1.043-0.783-2.09-1.268-3.033-1.55
	c-0.061-0.171-0.852-2.55-2.947-4.731c7.439-1.719,12.219,2.469,12.309,2.551h-0.014C61.127,30.303,62.424,36.743,57.029,42.438
	 M48.49,27.377c-0.971-0.904-2.162-1.773-3.685-2.371l0,0l0,0l0,0l0,0c-1.424,0.566-2.59,1.346-3.512,2.225
	c-0.93-0.402-2.418-0.871-4.279-1.018c2.803-4.35,7.824-5.652,7.869-5.658c0,0,5.531,1.579,7.925,5.778c0,0,0.357-0.063,0.498-0.058
	c0,0-2.193-4.982-7.822-7.151c6.453-4.708,12.556-2.462,12.603-2.438c0.031,0.011,4.971,4.261,4.121,12.28l0.252,0.24
	C56.469,24.931,50.723,26.488,48.49,27.377 M65.998,2.592L65.998,2.592c0.129,0.092,5.439,4.875,5.736,13.138
	c-6.578-2.401-12.76-0.883-12.76-0.883c-0.15-0.372-1.791-6.3-7.342-10.93C59.094,0.063,65.998,2.592,65.998,2.592 M23.717,2.505
	l-0.016-0.013c0.168-0.045,6.908-2.311,14.143,1.572c-5.57,4.733-7.133,10.721-7.133,10.721l0.738-0.144
	C35.979,4.553,44.776,2.939,44.858,2.926c0.137,0.027,8.886,1.673,13.316,11.776c-7.74-0.974-12.814,3.827-13.218,4.218
	c-0.033,0.001-0.059-0.02-0.059-0.02c-0.064,0.02-0.109,0.037-0.148,0.042c-0.424-0.416-5.875-5.608-14.148-4.117l0,0h-0.01h0.01
	l-0.014,0.013c-0.439-0.107-6.256-1.594-12.928,0.903C18.081,7.253,23.717,2.505,23.717,2.505 M13.329,21.188
	c0.027-0.021,5.84-6.928,16.777-5.75c-5.049,6.554-3.117,13.773-3.094,13.838l-0.016,0.021c-0.059,0.029-7.125,1.905-10.287,9.461
	C10.282,29.793,13.288,21.31,13.329,21.188 M10.758,51.442c-7.029-4.619-8.281-11.917-8.281-11.917H2.454
	c0.029-0.164,1.459-7.153,8.377-11.541c1.221,6.858,5.25,11.113,5.602,11.481c-0.031,0.054-0.059,0.101-0.074,0.152l0,0v0.007
	c0.016,0.033,0.016,0.072,0.043,0.112C15.79,40.368,11.911,44.657,10.758,51.442 M13.299,57.928
	c-0.057-0.104-3.006-8.551,3.383-17.48c3.016,7.328,9.67,9.365,10.236,9.531v0.02c0.027,0.02,0.057,0.061,0.088,0.057
	c-0.031,0.084-1.953,7.188,2.928,13.727C19.051,64.842,13.323,57.973,13.299,57.928 M23.631,76.538l-0.016-0.004
	c-0.123-0.102-5.389-4.814-5.715-13.025c6.195,2.26,11.629,1.088,12.504,0.875c0.053,0.051,0.078,0.102,0.113,0.141l0,0l0,0h0.016
	c0.043,0.02,0.086,0.021,0.148,0.033c0.258,0.932,2.016,6.383,7.201,10.732C30.422,79.11,23.631,76.538,23.631,76.538
	 M44.719,76.362c-0.105-0.035-8.822-1.676-13.279-11.682c7.477,0.953,12.473-3.469,13.184-4.137
	c0.109,0.039,0.219,0.094,0.332,0.154l0,0c0.039-0.016,0.072-0.025,0.109-0.037c1.119,0.996,5.955,4.906,12.99,4.057
	C53.553,74.727,44.821,76.327,44.719,76.362 M65.822,76.622l0.018-0.002c-0.162,0.076-6.824,2.303-14.029-1.498
	c5.055-4.338,6.768-9.684,7.01-10.529c0.07,0,0.117-0.01,0.18-0.025c0.012-0.043,0.051-0.062,0.086-0.109
	c1.02,0.268,6.545,1.408,12.791-0.939C71.432,71.946,65.822,76.622,65.822,76.622 M76.182,58.069
	c-0.039,0.055-5.783,6.885-16.615,5.785c4.947-6.568,3.016-13.738,3.016-13.738l-0.424,0.357c0.812,8.018-4.148,12.238-4.18,12.293
	c0,0-6.018,2.156-12.378-2.361c3.595-1.799,5.648-4.385,6.796-6.703c1.324,0.043,6.092-0.029,10.186-3.678h0.02
	c1.131-5.537-1.373-9.908-2.012-10.912c1.371-2.196,2.484-5.229,2.195-9.185c7.273,3.275,8.416,9.762,8.416,9.803
	c0,0.027-1.174,6.49-8.461,9.756l-0.123,0.551c0,0,7.105-1.834,10.303-9.383C79.186,49.573,76.203,57.975,76.182,58.069
	 M78.674,51.288c-1.15-6.436-4.732-10.596-5.48-11.367c0.037-0.07,0.057-0.125,0.082-0.186l0,0c-0.045-0.095-0.08-0.206-0.123-0.31
	c0.748-0.762,4.484-5.02,5.605-11.63c7.02,4.6,8.334,11.914,8.334,11.914h0.01C87.057,39.883,85.643,46.897,78.674,51.288"/>
</svg>
