<?xml version="1.0" encoding="UTF-8"?> <!-- Generator: Adobe Illustrator 16.0.0, SVG Export Plug-In . SVG Version: 6.00 Build 0) --> <svg xmlns="http://www.w3.org/2000/svg" xmlns:xlink="http://www.w3.org/1999/xlink" version="1.1" id="Layer_1" x="0px" y="0px" width="245px" height="153px" viewBox="0 0 245 153" xml:space="preserve"> <g> <path fill="#FFFFFF" d="M155.953,29.235h-0.018c-2.276-6.662-7.452-8.877-7.854-9.031c0.259-1.639,0.276-3.471-0.084-5.455v-0.002 l0,0c-1.573-1.354-3.198-2.262-4.762-2.871c0.115-0.852,0.626-6.129-3.632-11.27l-0.008,0.014 c-6.854-1.344-11.346,2.08-11.649,2.336c-1.282-1.014-2.825-1.934-4.683-2.607h-0.008c-1.927,0.693-3.517,1.656-4.824,2.721 c-0.646-0.52-4.931-3.621-11.499-2.465l0.014,0.012c-4.706,5.467-3.853,11.248-3.845,11.361c-1.516,0.602-3.079,1.512-4.614,2.814 l0,0l0,0h-0.007h0.007c-0.367,2.061-0.338,3.947-0.073,5.631c-0.881,0.371-5.568,2.574-7.825,8.799h0.003 c2.312,6.758,7.578,8.93,7.824,9.027c-0.246,1.645-0.262,3.461,0.103,5.443l0,0l0,0l0,0c1.603,1.371,3.234,2.283,4.821,2.896 c-0.135,1.057-0.494,6.189,3.644,11.199l0.003-0.016c6.716,1.32,11.112-1.898,11.584-2.275c1.282,1.023,2.843,1.953,4.714,2.637 h0.01c1.964-0.711,3.57-1.693,4.893-2.771c0.846,0.66,5.054,3.535,11.405,2.41h-0.01c4.521-5.262,3.91-10.74,3.839-11.268 c1.529-0.617,3.085-1.504,4.611-2.812l0,0l0,0l0,0c0.367-2.066,0.325-3.963,0.049-5.65 C148.894,37.715,153.667,35.526,155.953,29.235 M146.194,15.795c0.034,0.084,2.189,6.223-2.416,12.719 c-2.214-5.162-6.942-6.65-7.422-6.785c-0.014-0.018-0.047-0.027-0.056-0.051c0.067-0.307,1.321-5.436-2.277-10.129 C141.972,10.75,146.175,15.766,146.194,15.795 M117.304,36.149c1.917,0.482,3.534,0.215,3.867,0.145 c0.52,0.617,1.217,1.264,2.141,1.871c0,0,1.177-0.604,2.121-1.844c0.654,0.09,2.319,0.246,4.17-0.33 c-1.531,5.648-6.061,7.234-6.163,7.264l0,0C123.439,43.254,118.902,41.721,117.304,36.149 M110.613,37.143 c3.407,2.799,7.41,2.369,7.41,2.369c-0.054-0.076-0.143-0.328-0.143-0.328c-3.834-0.131-6.565-2.939-6.589-2.945 c-0.018-0.021-1.038-4.104,0.711-7.182c0,0-0.166-0.203-0.191-0.287c0,0-2.358,3.234-1.633,7.641 c-5.283-2.406-6.13-7.094-6.147-7.129c0.018-0.018,0.864-4.74,6.189-7.139l0.054-0.373c-0.493,5.43,2.588,8.549,3.99,9.666 c-0.227,0.953-0.324,2.01-0.168,3.127l0,0h0.017c0.938,0.758,1.927,1.215,2.876,1.49c0.205,1.604,1.152,5.861,5.841,8.27 c-4.698,3.41-9.134,1.803-9.164,1.793c-0.015-0.016-3.647-3.111-3.053-8.969V37.143z M121.427,20.508 c0.984-0.678,1.816-0.967,1.838-0.988c0.021,0.021,0.912,0.355,1.959,1.119h-0.009l0.044,0.008c0.944,0.699,2.042,1.76,2.695,3.244 c-2.27-0.492-3.873,0.486-4.021,0.604c-1.74-1.154-3.707-1.084-5.223-0.746c0.662-1.498,1.721-2.523,2.664-3.195l0.071-0.035 C121.445,20.518,121.44,20.518,121.427,20.508 M126.404,31.868c2.379-0.775,3.435-2.336,3.897-3.756 c1.881,2.705,1.254,5.908,1.254,5.947c-0.036,0.021-2.634,2.186-5.888,1.932c0.679-1.043,1.132-2.441,0.72-4.229 c0,0-0.293-0.992-1.08-1.707c0.101-0.205,0.159-0.344,0.159-0.344c1.173-3.053-1.177-4.953-1.177-4.953 c-0.062-0.059-0.121-0.084-0.191-0.143l0.129,0.078c3.467-1.42,5.552,0.814,5.552,0.814c0.544,4.342-2.528,5.773-3.433,6.092 L126.404,31.868z M114.917,31.834c0.127-1.312,0.523-2.951,1.625-4.293c0.754,2.859,2.812,4.059,3.064,4.195 c-0.042,0.285-0.062,0.592-0.062,0.908c0,0-0.015,1.52,1.352,3.322l-0.022-0.027c-3.369,0.41-5.9-1.822-5.949-1.859 c-0.008-0.021-0.128-0.932-0.013-2.176l0.005,0.014V31.834z M120.1,31.364c0,0,0.218-1.887,2.253-3.4l-0.018-0.342 c0,0-2.201,1.205-2.695,3.906c-3.006-2.219-2.494-6.172-2.494-6.172c2.804-1.949,5.629-0.936,5.629-0.936 c3.705,1.75,2.281,5.17,2.281,5.17c-0.301,0.766-0.643,0.959-0.643,0.959c-0.736,0.611-1.355,0.25-1.355,0.25 c-0.646-0.355-0.58-0.916-0.58-0.916c0.039-0.883,0.695-0.826,0.695-0.826c0.276,0.025,0.312,0.178,0.312,0.178 c0.103,0.262-0.161,0.312-0.161,0.312v0.154c0.193,0,0.302-0.205,0.302-0.205c0.176-0.439-0.192-0.598-0.192-0.598 c-0.775-0.285-1.143,0.51-1.143,0.51c-0.307,0.553,0.018,1.174,0.018,1.174c0.657,1.168,1.941,0.59,1.941,0.59 c0.406-0.236,0.691-0.574,0.884-0.85c0.067,0.041,2.029,1.578,0.157,4.998c-0.375,0.691-1.062,1.311-2.005,1.826 C123.285,37.147,119.404,35.196,120.1,31.364 M118.25,23.875c-1.172,0.318-1.95,0.758-1.95,0.758c-0.067,0.908,0,1.713,0.125,2.41 c-0.122,0.156-1.439,1.742-2.063,4.018c-3.794-4.105-2.927-8.658-2.919-8.756h0.024c0,0,3.493-3.127,8.964-1.861 C118.962,21.924,118.352,23.547,118.25,23.875 M110.587,21.409c-0.578-5.84,3.034-8.924,3.034-8.924 c0.062-0.014,4.503-1.623,9.191,1.807c-3.617,1.418-5.295,4.484-5.615,5.145C115.312,19.354,112.983,19.764,110.587,21.409 M129.922,35.887c0.812-0.277,1.657-0.713,2.452-1.352h0.009l0,0c0.159-1.053,0.085-2.031-0.069-2.912 c0.555-0.441,1.453-1.26,2.289-2.461c1.666,3.346,0.652,7.014,0.644,7.033c-0.013,0.004-2.837,2.793-6.237,2.957 C129.637,37.758,129.854,36.534,129.922,35.887 M132.218,31.268c-0.453-1.871-1.41-3.207-1.785-3.646 c0.325-1.361,0.154-2.49,0.154-2.49c-0.767-0.564-1.529-0.918-2.219-1.121c-0.041-0.127-0.625-1.859-2.156-3.447 c5.426-1.27,8.918,1.779,8.984,1.844h-0.008C135.188,22.407,136.146,27.098,132.218,31.268 M125.96,20.292 c-0.71-0.662-1.581-1.299-2.695-1.727v-0.002v0.002v-0.002v0.002c-1.039,0.412-1.889,0.99-2.555,1.627 c-0.681-0.285-1.77-0.629-3.13-0.729c2.039-3.184,5.702-4.141,5.735-4.145c0,0,4.036,1.139,5.793,4.201 c0,0,0.261-0.045,0.362-0.041c0,0-1.608-3.635-5.721-5.207c4.706-3.445,9.161-1.816,9.192-1.801 c0.027,0.014,3.644,3.104,3.033,8.955l0.184,0.178C131.776,18.491,127.585,19.639,125.96,20.292 M138.696,2.172L138.696,2.172 c0.092,0.068,3.977,3.545,4.203,9.578c-4.799-1.744-9.31-0.627-9.31-0.627c-0.111-0.262-1.315-4.592-5.376-7.961 C133.647,0.334,138.696,2.172,138.696,2.172 M107.834,2.182l-0.009-0.01c0.121-0.037,5.037-1.703,10.324,1.121 c-4.059,3.463-5.188,7.838-5.188,7.838l0.54-0.107c3.287-7.373,9.704-8.566,9.763-8.576c0.101,0.023,6.49,1.211,9.737,8.576 c-5.647-0.699-9.343,2.816-9.637,3.102c-0.024,0-0.042-0.018-0.042-0.018c-0.051,0.018-0.08,0.025-0.108,0.035 c-0.311-0.303-4.3-4.084-10.332-2.98l0,0h-0.009h0.009l-0.013,0.006c-0.322-0.078-4.567-1.152-9.433,0.686 C103.732,5.657,107.834,2.182,107.834,2.182 M100.285,15.834c0.022-0.018,4.25-5.07,12.237-4.225 c-3.676,4.793-2.252,10.055-2.235,10.102l-0.013,0.018c-0.041,0.023-5.195,1.402-7.492,6.922 C98.079,22.118,100.257,15.92,100.285,15.834 M98.464,37.917c-5.14-3.354-6.068-8.682-6.068-8.682h-0.015 c0.026-0.121,1.053-5.225,6.093-8.441c0.902,5.008,3.852,8.105,4.111,8.373c-0.025,0.043-0.043,0.076-0.056,0.115l0,0v0.002 c0.013,0.025,0.013,0.051,0.03,0.084C102.115,29.829,99.292,32.963,98.464,37.917 M100.328,42.647 c-0.043-0.07-2.207-6.236,2.438-12.764c2.213,5.346,7.076,6.82,7.487,6.938v0.018c0.021,0.01,0.041,0.041,0.066,0.041 c-0.025,0.064-1.415,5.246,2.16,10.01C104.542,47.684,100.345,42.684,100.328,42.647 M107.9,56.211h-0.009 c-0.091-0.072-3.944-3.504-4.194-9.494c4.526,1.631,8.49,0.77,9.127,0.613c0.038,0.035,0.059,0.068,0.084,0.102l0,0l0,0h0.012 c0.029,0.014,0.063,0.014,0.104,0.021c0.192,0.678,1.482,4.658,5.275,7.82C112.862,58.075,107.9,56.211,107.9,56.211 M123.295,56.045c-0.08-0.023-6.443-1.203-9.712-8.504c5.455,0.682,9.094-2.551,9.615-3.045c0.074,0.031,0.158,0.072,0.241,0.115 v0.002c0.025-0.012,0.052-0.02,0.08-0.031c0.816,0.73,4.351,3.578,9.482,2.941C129.737,54.842,123.365,56.022,123.295,56.045 M138.696,56.198h0.009c-0.116,0.055-4.974,1.691-10.24-1.068c3.686-3.176,4.923-7.082,5.1-7.697c0.049,0,0.083-0.008,0.13-0.021 c0.011-0.031,0.037-0.045,0.062-0.076c0.744,0.189,4.78,1.014,9.334-0.715C142.782,52.778,138.696,56.198,138.696,56.198 M146.224,42.641c-0.029,0.043-4.212,5.031-12.115,4.248c3.6-4.799,2.177-10.029,2.177-10.029l-0.31,0.262 c0.61,5.854-3.006,8.941-3.033,8.979c0,0-4.383,1.584-9.037-1.705c2.625-1.312,4.115-3.207,4.953-4.896 c0.962,0.025,4.445-0.037,7.427-2.705h0.016c0.812-4.043-1.02-7.229-1.491-7.963c0.998-1.604,1.802-3.82,1.585-6.705 c5.315,2.381,6.163,7.109,6.163,7.139c0,0.02-0.848,4.74-6.163,7.139l-0.085,0.4c0,0,5.184-1.348,7.503-6.867 C148.4,36.434,146.239,42.577,146.224,42.641 M148.033,37.682c-0.853-4.691-3.476-7.721-4.021-8.281 c0.025-0.053,0.034-0.092,0.061-0.137l0,0c-0.035-0.072-0.061-0.15-0.093-0.223c0.543-0.564,3.265-3.672,4.07-8.504 c5.132,3.346,6.102,8.684,6.102,8.684h0.01C154.129,29.348,153.107,34.471,148.033,37.682"></path> <path fill="#FFFFFF" d="M45.675,105.727c-1.942-0.262-4.451-1.254-6.239-0.418c-0.36,0.137-1.247,0.783-1.507,1.057 c0.185-0.273,0.185-0.195,0-0.01c0.17-0.264,0.369-0.541,0.638-0.812c1.348-1.359,3.298-2.473,5.173-2.066 c3.375,0.76,4.464,1.699,5.762,0.078C49.501,103.555,48.324,106.123,45.675,105.727"></path> <path fill="#FFFFFF" d="M212.427,106.791c-1.925-0.281-4.438-1.277-6.211-0.426c-0.37,0.145-1.265,0.775-1.523,1.045 c0.182-0.27,0.182-0.188,0-0.012c0.153-0.258,0.367-0.531,0.635-0.799c1.356-1.375,3.316-2.488,5.175-2.07 c3.366,0.75,4.463,1.701,5.752,0.082C216.254,104.611,215.087,107.174,212.427,106.791"></path> <path fill="#FFFFFF" d="M19.843,109.086c-0.209,0.523-0.334,0.758-0.408,0.846c-1.303,1.674-3.408,2.514-6.256,2.508 c-3.395-0.025-6.06-1.242-7.946-3.607c-1.699-2.105-2.545-4.797-2.527-7.998c0.008-2.811,0.878-5.111,2.545-6.801 c1.662-1.699,3.925-2.551,6.689-2.545c2.346,0.016,4.266,0.547,5.729,1.564c0.375,0.271,0.689,0.717,0.951,1.371 c0.09,0.289,0.181,0.621,0.261,0.949l0.418-0.012c0.121-0.77,0.21-1.396,0.257-1.846c0.018-0.322,0.018-0.809-0.031-1.471V91.9 l-0.143-0.043c-0.469-0.15-0.911-0.262-1.271-0.354c-2.123-0.676-4.24-1.037-6.313-1.049c-2.956-0.018-5.551,0.918-7.695,2.781 c-2.482,2.164-3.768,5.145-3.784,8.873c-0.025,3.17,0.92,5.789,2.817,7.789c2.233,2.34,5.564,3.551,9.88,3.576 c1.211,0.012,2.459-0.098,3.703-0.277c1.053-0.176,1.713-0.326,2.013-0.465c0.095-0.037,0.217-0.072,0.352-0.113 c0.188-0.037,0.292-0.076,0.368-0.09l0.074-0.031l0.049-0.084c0.125-0.303,0.278-0.766,0.446-1.453 c0.125-0.783,0.208-1.387,0.238-1.799L19.843,109.086z"></path> <path fill="#FFFFFF" d="M95.157,113.141c-0.891-1.016-1.414-2.221-1.57-3.572l-1.741-14.842c-0.032-0.4-0.046-0.77-0.046-1.141 c0.004-0.49,0.125-0.818,0.326-1.002l1.169-0.729l-0.114-0.4c-1.16,0.086-1.912,0.113-2.245,0.113 c-0.383,0-1.011-0.057-1.845-0.133l-0.556-0.062l0.372,0.414c0.344,0.391,0.518,0.729,0.518,1.029c0,0.236-0.17,0.857-0.967,2.492 l-6.939,14.109L74.74,94.533c-0.508-1.113-0.774-2.115-0.757-2.98v-0.248l-0.234,0.031c-0.628,0.092-1.124,0.109-1.499,0.109 c-0.476,0-1.198-0.043-2.135-0.129l-0.742-0.061l0.601,0.434c1.488,1.156,1.728,1.693,1.728,1.926c0,0.08-0.055,0.424-0.331,1.812 l-2.763,14.146c-0.339,1.754-0.511,2.32-0.603,2.482c-0.021,0.068-0.185,0.262-0.927,0.885l-0.511,0.436l0.658-0.051 c0.926-0.084,1.523-0.113,1.758-0.113c0.456,0,1.063,0.041,1.809,0.135l0.764,0.086l-0.62-0.471 c-0.82-0.629-0.885-0.893-0.885-0.965c0-0.934,0.08-1.783,0.218-2.492c0.219-1.156,1.102-5.623,2.664-13.414l8.188,17.955 l8.538-17.65l1.768,13.297c0.164,1.43,0.206,1.857,0.195,1.963c0,0.414-0.203,0.908-0.604,1.477l-0.275,0.385l0.467-0.041 c0.825-0.076,1.469-0.113,1.895-0.113c0.482,0,1.102,0.051,1.869,0.135l0.547,0.059L95.157,113.141z"></path> <path fill="#FFFFFF" d="M118.084,111.51c-0.228,0.23-0.463,0.4-0.664,0.51c-0.562,0.299-1.816,0.453-3.761,0.441l-2.875-0.021 l0.065-9.58l3.298,0.018c0.826,0,1.531,0.281,2.101,0.809l0.416,0.402l-0.056-0.578c-0.066-0.553-0.094-1.018-0.086-1.373 l0.01-2.133l-0.391,0.592c-0.428,0.66-1.106,0.979-2.053,0.975l-3.232-0.039l0.043-8.686c0.446-0.006,0.896-0.006,1.338,0 c1.876,0.004,3.366,0.08,3.736,0.176c0.59,0.303,1.016,0.539,1.23,0.764l0.436,0.406l-0.073-0.592 c-0.091-0.6-0.204-0.998-0.369-1.25c-0.346-0.492-0.722-0.736-1.111-0.736c-0.235,0-2.101,0-3.63,0.037 c-1.467,0.023-2.41,0.039-2.662,0.039c-0.44,0-1.089-0.053-1.915-0.133l-0.739-0.074l0.586,0.455 c0.393,0.293,0.657,0.633,0.77,0.961c0.109,0.291,0.139,0.824,0.139,1.594l-0.107,15.941c0,1.256-0.1,1.746-0.178,1.959 c-0.021,0.053-0.139,0.268-0.766,0.809l-0.494,0.422l0.648-0.049c0.959-0.072,1.611-0.1,1.906-0.1c0.088,0,0.577,0.012,2.879,0.121 c1.785,0.084,3.232,0.125,4.329,0.129c0.511,0,1.018-0.633,1.573-1.982L118.084,111.51z"></path> <path fill="#FFFFFF" d="M143.535,111.246c-0.343,0.316-0.628,0.58-0.816,0.744c-0.741,0.41-2.285,0.604-4.607,0.592 c-0.955,0-2.136-0.084-3.5-0.219l0.114-17.713c0-1.203,0.388-2.025,1.166-2.529l-0.137-0.393c-1.021,0.074-1.766,0.113-2.209,0.105 c-0.409,0-1.078-0.047-1.99-0.131l-0.135,0.391c0.711,0.459,1.047,1.301,1.047,2.535l-0.111,16.484 c-0.007,0.82-0.107,1.176-0.191,1.332c-0.033,0.084-0.197,0.299-0.87,0.918l-0.465,0.398l0.615-0.037 c1.056-0.068,1.721-0.113,2.023-0.113c0.915,0.012,2.38,0.068,4.349,0.15c2.041,0.096,3.399,0.15,4.16,0.154 c0.471,0,0.906-0.32,1.307-0.98c0.314-0.734,0.506-1.221,0.599-1.467L143.535,111.246z"></path> <path fill="#FFFFFF" d="M168.825,111.402c-0.355,0.316-0.639,0.576-0.816,0.752c-0.737,0.402-2.283,0.615-4.604,0.59 c-0.969-0.01-2.143-0.084-3.501-0.215l0.107-17.729c0.011-1.186,0.391-2.008,1.174-2.52l-0.126-0.387 c-1.037,0.068-1.785,0.113-2.227,0.098c-0.41,0-1.072-0.037-1.984-0.135l-0.143,0.406c0.703,0.436,1.055,1.297,1.055,2.521 l-0.104,16.486c0,0.811-0.122,1.168-0.207,1.334c-0.041,0.086-0.198,0.301-0.871,0.912l-0.451,0.412l0.611-0.041 c1.057-0.082,1.725-0.117,2.027-0.111c0.903,0,2.368,0.053,4.354,0.152c2.026,0.09,3.386,0.139,4.15,0.146 c0.47,0,0.888-0.318,1.298-0.984c0.32-0.732,0.512-1.209,0.602-1.461L168.825,111.402z"></path> <path fill="#FFFFFF" d="M186.103,113.709c-0.618-0.467-0.92-1.211-0.903-2.268l0.103-17.303c0.02-0.865,0.273-1.432,0.81-1.689 l-0.104-0.404c-0.759,0.076-1.386,0.113-1.82,0.113c-0.428-0.004-1.068-0.041-1.9-0.137l-0.111,0.41 c0.605,0.268,0.881,0.828,0.881,1.703l-0.108,17.316c-0.01,1.074-0.314,1.791-0.942,2.238l-0.656,0.469l0.803-0.082 c0.859-0.094,1.481-0.139,1.916-0.139c0.439,0,1.081,0.057,1.877,0.168l0.787,0.088L186.103,113.709z"></path> <path fill="#FFFFFF" d="M242.243,103.887c-1.482-1.184-2.956-2.371-4.418-3.537c-1.523-1.32-2.293-2.611-2.288-3.812 c0-0.934,0.337-1.766,0.997-2.432c0.668-0.697,1.48-1.037,2.492-1.02c0.723,0,1.449,0.158,2.144,0.5 c0.704,0.332,1.259,0.789,1.602,1.336c0.275,0.65,0.477,1.152,0.594,1.494l0.419-0.07c0.021-0.645,0.032-1.15,0.043-1.482 c0-0.33,0.031-0.758,0.091-1.277l0.017-0.166l-0.16-0.049c-0.381-0.135-0.572-0.197-0.656-0.248 c-3.369-1.434-6.039-1.199-7.748,0.693c-0.979,1.07-1.477,2.396-1.483,3.922c-0.003,1.592,0.804,3.076,2.396,4.436l4.361,3.242 c1.507,1.334,2.269,2.812,2.258,4.402c0,1.082-0.466,1.975-1.403,2.689c-0.854,0.689-1.745,1.01-2.646,1.01 c-1.508-0.004-2.729-0.385-3.618-1.104c-0.468-0.395-0.854-0.879-1.144-1.479c-0.119-0.281-0.207-0.564-0.296-0.828l-0.411,0.055 c0.025,1.129,0.083,1.967,0.174,2.514c0.107,0.605,0.237,0.98,0.438,1.168l0.118,0.135l0.141-0.09c0,0,0.042-0.025,0.178-0.025 c0.131,0.012,0.299,0.033,0.497,0.053c0.59,0.131,1.169,0.242,1.755,0.383c0.761,0.154,1.486,0.229,2.1,0.229 c1.625,0.008,3.023-0.611,4.17-1.807c1.131-1.215,1.719-2.617,1.729-4.191C244.688,106.941,243.876,105.389,242.243,103.887"></path> <path fill="#FFFFFF" d="M221.806,112.857c-0.356-0.328-0.717-0.867-1.056-1.586l-9.369-19.992l-9.704,19.873 c-0.52,1.027-1.356,1.904-2.478,2.605l0.134,0.393c0.811-0.07,1.545-0.1,2.135-0.1c0.481,0,1.188,0.041,2.092,0.135l0.545,0.053 l-0.367-0.408c-0.629-0.697-0.729-1.002-0.729-1.135c0-0.406,0.117-0.885,0.343-1.395l1.42-3.094l6.14-13.096l5.627,12.279 l0.389,0.877l1.237,3.135c0.226,0.576,0.351,1.098,0.351,1.561c0,0.318-0.207,0.633-0.588,0.934l-0.535,0.43l0.699-0.053 c0.922-0.08,1.688-0.123,2.24-0.123c0.527,0.008,1.508,0.062,2.948,0.152l0.121-0.391 C222.524,113.377,221.98,113.033,221.806,112.857"></path> <path fill="#FFFFFF" d="M54.57,111.811c-0.339-0.34-0.696-0.863-1.044-1.596l-9.376-19.98l-9.713,19.869 c-0.51,1.02-1.348,1.914-2.462,2.611l0.124,0.389c0.818-0.07,1.551-0.113,2.146-0.113c0.479,0.004,1.184,0.049,2.09,0.141 l0.557,0.066l-0.386-0.428c-0.633-0.688-0.726-0.996-0.726-1.113c0-0.428,0.117-0.893,0.349-1.402l1.413-3.104l6.139-13.1 l5.636,12.293l0.394,0.879l1.223,3.119c0.233,0.59,0.356,1.1,0.334,1.568c0,0.322-0.184,0.633-0.553,0.934l-0.551,0.438 l0.702-0.061c0.925-0.08,1.677-0.107,2.226-0.107c0.537,0.006,1.521,0.059,2.957,0.141l0.126-0.396 C55.29,112.33,54.754,111.979,54.57,111.811"></path> <g> <path fill="#FFFFFF" d="M113.042,71.108c-0.272-0.482-0.846-0.748-1.727-0.748l-3.658-0.033l-0.066,11.855 c0,0.467,0.093,0.85,0.27,1.131c0.019,0.002,0.17,0.166,0.451,0.455c-0.52-0.049-0.979-0.084-1.327-0.084 c-0.36,0-0.799,0.02-1.318,0.068c0.501-0.234,0.761-0.758,0.771-1.57l0.075-11.855l-3.692-0.027 c-0.813-0.006-1.387,0.246-1.7,0.756c0.009-0.207,0.04-0.484,0.113-0.842c0.214-0.379,0.438-0.582,0.707-0.582 c2.763,0.086,4.482,0.119,5.176,0.119c2.104,0.008,3.79,0,5.064-0.033c0.276-0.025,0.503,0.143,0.712,0.512 C112.995,70.395,113.058,70.696,113.042,71.108"></path> <path fill="#FFFFFF" d="M130.743,83.918c-0.424-0.068-0.821-0.098-1.207-0.098c-0.753,0-1.168,0.014-1.29,0.066 c0.269-0.232,0.452-0.428,0.503-0.572c0.136-0.266,0.213-0.662,0.213-1.199l0.039-5.621l-8.395-0.055l-0.042,5.505 c0,0.543,0.018,0.9,0.072,1.086c0.089,0.283,0.286,0.564,0.61,0.818c-0.46-0.059-0.887-0.082-1.281-0.098 c-0.326,0-0.829,0.035-1.503,0.082c0.334-0.197,0.575-0.416,0.694-0.68c0.14-0.273,0.215-0.684,0.215-1.283l0.053-10.187 c0.018-0.576-0.003-0.938-0.045-1.096c-0.074-0.322-0.271-0.607-0.583-0.838c0.532,0.051,0.943,0.084,1.245,0.084 c0.301,0,0.684-0.021,1.193-0.084c-0.24,0.246-0.397,0.451-0.459,0.631c-0.094,0.244-0.14,0.689-0.157,1.303l-0.013,4.096 l8.395,0.059l0.023-3.963c0-0.656-0.023-1.115-0.082-1.371c-0.084-0.26-0.244-0.494-0.516-0.703 c0.52,0.059,0.908,0.098,1.205,0.098c0.29,0,0.684-0.031,1.198-0.082c-0.289,0.193-0.474,0.412-0.548,0.684 c-0.034,0.18-0.057,0.645-0.059,1.389l-0.067,10.195c0,0.568,0.041,0.992,0.126,1.264C130.349,83.518,130.5,83.703,130.743,83.918 "></path> <path fill="#FFFFFF" d="M143.883,82.832c-0.348,0.805-0.642,1.209-0.907,1.209c-0.724-0.008-1.659-0.02-2.814-0.082 c-1.145-0.059-1.791-0.086-1.871-0.086c-0.205,0-0.633,0.027-1.27,0.086c0.336-0.289,0.521-0.48,0.555-0.607 c0.074-0.197,0.125-0.631,0.125-1.32l0.058-10.404c0-0.51-0.023-0.867-0.083-1.068c-0.097-0.26-0.275-0.494-0.562-0.699 c0.545,0.053,0.973,0.088,1.261,0.088c0.164,0,0.751,0,1.738-0.035c1.004-0.012,1.565-0.014,1.717-0.014 c0.21,0,0.419,0.133,0.62,0.42c0.078,0.15,0.15,0.391,0.208,0.752c-0.149-0.152-0.435-0.32-0.847-0.525 c-0.372-0.098-1.322-0.129-2.836-0.107l-0.052,5.936l2.253,0.014c0.66,0.012,1.155-0.225,1.458-0.668v0.896 c0,0.238,0.007,0.552,0.044,0.917c-0.389-0.365-0.878-0.56-1.46-0.56l-2.295-0.025l-0.025,6.539l2.007,0.004 c1.285,0.012,2.131-0.102,2.519-0.295C143.57,83.117,143.72,82.994,143.883,82.832"></path> </g> <circle fill="#FFFFFF" cx="204.117" cy="147.111" r="1.466"></circle> <circle fill="#FFFFFF" cx="36.463" cy="147.111" r="1.465"></circle> <g> <g> <path fill="#FFFFFF" d="M55.753,146.355c2.391,0.043,3.715,1.439,3.715,3.039c0,1.541-1.297,3.297-5.127,3.297 c-3.254,0-4.578-1.482-5.341-2.203l0.675-0.705c0.734,0.576,1.744,1.93,4.666,1.93c2.232,0,4.148-0.721,4.148-2.318 c0-0.98-0.907-2.018-2.794-2.059l-2.477-0.045c-1.556-0.014-3.442-0.561-3.442-2.678c0-1.412,1.281-3.182,4.623-3.182 c2.592,0,3.888,1.166,4.449,1.541l-0.605,0.734c-0.979-0.605-1.957-1.297-3.772-1.297c-2.692,0-3.716,1.324-3.716,2.217 c0,1.312,1.211,1.672,2.464,1.686L55.753,146.355z"></path> <path fill="#FFFFFF" d="M68.206,152.461h-0.979v-10.799h5.746c2.922,0,3.613,1.482,3.613,3.066c0,1.598-0.691,3.082-3.613,3.082 h-4.768V152.461z M72.974,146.832c1.497,0,2.634-0.375,2.634-2.104c0-1.727-1.137-2.088-2.634-2.088h-4.768v4.191H72.974z"></path> <path fill="#FFFFFF" d="M90.049,152.691c-3.325,0-5.788-2.377-5.788-5.631s2.463-5.629,5.788-5.629 c3.341,0,5.789,2.375,5.789,5.629S93.374,152.691,90.049,152.691z M94.858,147.061c0-2.475-1.916-4.65-4.81-4.65 s-4.81,2.176-4.81,4.65c0,2.479,1.916,4.652,4.81,4.652S94.858,149.539,94.858,147.061z"></path> <path fill="#FFFFFF" d="M108.118,152.461h-0.979v-9.82h-4.09v-0.979h9.158v0.979h-4.09V152.461z"></path> <path fill="#FFFFFF" d="M127.901,152.461h-7.992v-10.799h0.98v9.82h7.012V152.461z"></path> <path fill="#FFFFFF" d="M137.015,152.461h-0.979v-10.799h0.979V152.461z"></path> <path fill="#FFFFFF" d="M156.295,149.553c0,1.412-1.585,3.139-4.853,3.139c-3.471,0-5.934-2.434-5.934-5.645 c0-3.441,2.736-5.615,6.033-5.615c2.405,0,3.788,1.166,4.493,1.943l-0.634,0.705c-0.547-0.504-1.54-1.67-3.873-1.67 c-3.24,0-5.04,2.232-5.04,4.637c0,2.506,1.814,4.666,4.954,4.666c2.605,0,3.873-1.281,3.873-2.146v-1.857h-3.873v-0.979h4.853 V149.553z"></path> <path fill="#FFFFFF" d="M174.537,152.461h-0.979v-5.096h-7.487v5.096h-0.979v-10.799h0.979v4.723h7.487v-4.723h0.979V152.461z"></path> <path fill="#FFFFFF" d="M188.142,152.461h-0.979v-9.82h-4.09v-0.979h9.159v0.979h-4.091V152.461z"></path> </g> </g> </g> </svg> 