<?xml version="1.0" encoding="UTF-8"?> <!-- Generator: Adobe Illustrator 16.0.0, SVG Export Plug-In . SVG Version: 6.00 Build 0) --> <svg xmlns="http://www.w3.org/2000/svg" xmlns:xlink="http://www.w3.org/1999/xlink" version="1.1" id="Layer_1" x="0px" y="0px" width="245px" height="153px" viewBox="0 0 245 153" xml:space="preserve"> <g> <path fill="#FFFFFF" d="M155.954,29.233h-0.021c-2.276-6.656-7.453-8.875-7.85-9.027c0.259-1.645,0.277-3.469-0.088-5.457l0,0l0,0 c-1.569-1.352-3.197-2.264-4.757-2.869c0.11-0.854,0.622-6.135-3.633-11.271l-0.008,0.016c-6.857-1.35-11.349,2.076-11.651,2.328 c-1.283-1.012-2.822-1.93-4.68-2.605h-0.013c-1.921,0.699-3.518,1.662-4.825,2.725c-0.645-0.521-4.932-3.619-11.496-2.463 l0.014,0.008c-4.71,5.469-3.856,11.246-3.847,11.365c-1.512,0.598-3.08,1.51-4.612,2.816l0,0l0,0h-0.006h0.006 c-0.366,2.051-0.336,3.939-0.07,5.627c-0.883,0.373-5.575,2.574-7.827,8.793h0.008c2.303,6.766,7.574,8.934,7.819,9.027 c-0.245,1.652-0.263,3.467,0.102,5.451l0,0l0,0l0,0c1.603,1.365,3.234,2.277,4.826,2.893c-0.138,1.055-0.497,6.193,3.64,11.195 v-0.008c6.721,1.316,11.113-1.898,11.583-2.277c1.288,1.021,2.85,1.947,4.713,2.631h0.014c1.964-0.707,3.569-1.686,4.893-2.766 c0.848,0.658,5.054,3.535,11.403,2.412h-0.005c4.519-5.266,3.905-10.75,3.833-11.271c1.532-0.615,3.086-1.502,4.612-2.809l0,0l0,0 l0,0c0.367-2.068,0.33-3.967,0.053-5.654C148.89,37.713,153.664,35.528,155.954,29.233 M146.195,15.793 c0.03,0.084,2.188,6.227-2.416,12.723c-2.215-5.162-6.944-6.648-7.421-6.791c-0.013-0.008-0.053-0.025-0.058-0.053 c0.066-0.303,1.321-5.432-2.28-10.123C141.972,10.749,146.173,15.768,146.195,15.793 M117.305,36.151 c1.916,0.482,3.532,0.213,3.862,0.145c0.523,0.617,1.219,1.266,2.142,1.873c0,0,1.179-0.607,2.125-1.848 c0.653,0.094,2.317,0.244,4.167-0.33c-1.531,5.654-6.059,7.23-6.165,7.264l0,0C123.436,43.254,118.904,41.719,117.305,36.151 M110.615,37.149c3.405,2.793,7.405,2.359,7.405,2.359c-0.05-0.074-0.138-0.328-0.138-0.328c-3.83-0.125-6.565-2.936-6.591-2.936 c-0.013-0.025-1.038-4.107,0.71-7.188c0,0-0.167-0.203-0.192-0.287c0,0-2.352,3.24-1.635,7.645 c-5.283-2.412-6.126-7.098-6.142-7.131c0.016-0.025,0.858-4.742,6.188-7.137l0.059-0.371c-0.5,5.424,2.582,8.545,3.985,9.66 c-0.227,0.951-0.324,2.008-0.166,3.129l0,0h0.017c0.936,0.762,1.925,1.207,2.873,1.496c0.207,1.602,1.151,5.854,5.842,8.258 c-4.699,3.418-9.139,1.805-9.162,1.799C113.65,46.1,110.019,43.002,110.615,37.149L110.615,37.149z M121.429,20.508 c0.979-0.682,1.815-0.967,1.838-0.984c0.014,0.018,0.913,0.354,1.954,1.113h-0.008l0.046,0.016 c0.947,0.693,2.038,1.754,2.697,3.242c-2.271-0.5-3.878,0.488-4.023,0.598c-1.741-1.156-3.708-1.08-5.22-0.742 c0.661-1.502,1.714-2.521,2.661-3.197l0.077-0.033C121.451,20.52,121.44,20.52,121.429,20.508 M126.405,31.868 c2.376-0.77,3.436-2.34,3.9-3.756c1.878,2.709,1.247,5.904,1.247,5.947c-0.033,0.018-2.631,2.186-5.883,1.932 c0.679-1.045,1.129-2.438,0.717-4.227c0,0-0.291-0.994-1.077-1.713c0.099-0.201,0.159-0.336,0.159-0.336 c1.171-3.053-1.181-4.963-1.181-4.963c-0.058-0.051-0.12-0.076-0.192-0.135l0.135,0.076c3.462-1.418,5.551,0.811,5.551,0.811 c0.54,4.346-2.53,5.781-3.433,6.1L126.405,31.868z M114.916,31.833c0.126-1.309,0.522-2.945,1.629-4.295 c0.754,2.867,2.812,4.066,3.066,4.201c-0.045,0.277-0.073,0.592-0.073,0.906c0,0-0.007,1.523,1.354,3.322l-0.02-0.025 c-3.367,0.404-5.901-1.822-5.947-1.865c-0.009-0.018-0.128-0.928-0.013-2.168l0.004,0.008V31.833z M120.095,31.36 c0,0,0.221-1.881,2.257-3.4l-0.018-0.336c0,0-2.2,1.205-2.695,3.904c-3.007-2.219-2.498-6.176-2.498-6.176 c2.806-1.947,5.633-0.928,5.633-0.928c3.705,1.746,2.284,5.164,2.284,5.164c-0.304,0.768-0.64,0.963-0.64,0.963 c-0.741,0.615-1.366,0.252-1.366,0.252c-0.645-0.355-0.572-0.918-0.572-0.918c0.036-0.881,0.694-0.828,0.694-0.828 c0.276,0.025,0.313,0.176,0.313,0.176c0.099,0.264-0.167,0.312-0.167,0.312v0.16c0.2,0,0.305-0.209,0.305-0.209 c0.175-0.439-0.193-0.602-0.193-0.602c-0.776-0.277-1.144,0.516-1.144,0.516c-0.308,0.559,0.02,1.174,0.02,1.174 c0.657,1.164,1.942,0.59,1.942,0.59c0.404-0.236,0.688-0.574,0.882-0.854c0.068,0.043,2.029,1.578,0.162,5.006 c-0.381,0.689-1.064,1.307-2.014,1.822C123.281,37.149,119.404,35.198,120.095,31.36 M118.248,23.875 c-1.168,0.312-1.949,0.76-1.949,0.76c-0.066,0.904,0,1.713,0.123,2.414c-0.118,0.15-1.434,1.736-2.059,4.014 c-3.801-4.109-2.928-8.664-2.925-8.756h0.026c0,0,3.491-3.131,8.962-1.865C118.962,21.928,118.352,23.547,118.248,23.875 M110.586,21.413c-0.578-5.846,3.035-8.928,3.035-8.928c0.058-0.016,4.5-1.625,9.19,1.807c-3.617,1.418-5.296,4.48-5.613,5.148 C115.305,19.354,112.978,19.766,110.586,21.413 M129.922,35.891c0.812-0.281,1.656-0.717,2.454-1.352h0.005l0,0 c0.164-1.053,0.088-2.041-0.068-2.91c0.558-0.447,1.452-1.266,2.291-2.465c1.665,3.342,0.654,7.014,0.642,7.029 c-0.013,0.01-2.836,2.793-6.24,2.951C129.64,37.756,129.855,36.532,129.922,35.891 M132.222,31.268 c-0.455-1.873-1.412-3.207-1.785-3.645c0.318-1.369,0.149-2.49,0.149-2.49c-0.766-0.564-1.53-0.918-2.221-1.121 c-0.04-0.129-0.619-1.857-2.152-3.451c5.427-1.266,8.913,1.787,8.986,1.846h-0.011C135.188,22.407,136.148,27.1,132.222,31.268 M125.963,20.29c-0.712-0.656-1.58-1.299-2.696-1.729l0,0l0,0l0,0l0,0c-1.042,0.422-1.889,0.996-2.56,1.627 c-0.675-0.277-1.768-0.623-3.126-0.725c2.038-3.18,5.699-4.143,5.734-4.143c0,0,4.04,1.139,5.791,4.203 c0,0,0.264-0.053,0.369-0.043c0,0-1.612-3.637-5.728-5.205c4.708-3.451,9.164-1.822,9.192-1.807 c0.026,0.016,3.646,3.105,3.035,8.961l0.18,0.176C131.776,18.495,127.587,19.641,125.963,20.29 M138.695,2.176L138.695,2.176 c0.093,0.068,3.978,3.543,4.205,9.576c-4.801-1.746-9.31-0.625-9.31-0.625c-0.115-0.268-1.31-4.598-5.378-7.963 C133.645,0.338,138.695,2.176,138.695,2.176 M107.833,2.186l-0.011-0.01c0.124-0.043,5.038-1.705,10.325,1.123 c-4.056,3.457-5.186,7.838-5.186,7.838l0.535-0.111c3.294-7.373,9.71-8.562,9.77-8.58c0.098,0.027,6.491,1.217,9.736,8.58 c-5.647-0.699-9.348,2.811-9.638,3.105c-0.026,0-0.044-0.025-0.044-0.025c-0.049,0.025-0.076,0.025-0.103,0.033 c-0.313-0.303-4.303-4.082-10.338-2.977l0,0h-0.009h0.009l-0.009,0.008c-0.327-0.076-4.566-1.148-9.436,0.684 C103.732,5.653,107.833,2.186,107.833,2.186 M100.281,15.836c0.026-0.018,4.252-5.07,12.241-4.229 c-3.674,4.793-2.255,10.057-2.234,10.109l-0.009,0.008c-0.045,0.023-5.199,1.41-7.496,6.926 C98.08,22.122,100.254,15.92,100.281,15.836 M98.464,37.915c-5.14-3.35-6.066-8.682-6.066-8.682H92.38 c0.024-0.117,1.056-5.221,6.09-8.436c0.908,5.002,3.853,8.098,4.115,8.367c-0.026,0.045-0.041,0.078-0.055,0.119l0,0l0,0 c0.014,0.025,0.014,0.051,0.028,0.086C102.117,29.823,99.294,32.963,98.464,37.915 M100.332,42.649 c-0.051-0.076-2.21-6.234,2.435-12.764c2.216,5.348,7.079,6.814,7.487,6.934v0.018c0.025,0.016,0.038,0.043,0.069,0.043 c-0.031,0.064-1.418,5.246,2.155,10.004C104.542,47.684,100.345,42.682,100.332,42.649 M107.904,56.206h-0.013 c-0.088-0.066-3.944-3.5-4.192-9.492c4.521,1.639,8.488,0.77,9.122,0.617c0.04,0.035,0.06,0.068,0.088,0.102l0,0l0,0h0.01 c0.032,0.016,0.06,0.016,0.107,0.016c0.194,0.686,1.482,4.658,5.272,7.832C112.861,58.071,107.904,56.206,107.904,56.206 M123.294,56.045c-0.076-0.023-6.442-1.205-9.708-8.504c5.451,0.684,9.09-2.547,9.614-3.045c0.071,0.033,0.155,0.076,0.235,0.117 l0,0c0.026-0.008,0.055-0.018,0.084-0.035c0.81,0.736,4.352,3.58,9.482,2.945C129.739,54.84,123.365,56.022,123.294,56.045 M138.695,56.198h0.009c-0.115,0.059-4.976,1.697-10.241-1.07c3.686-3.174,4.927-7.08,5.1-7.695c0.049,0,0.082-0.008,0.13-0.018 c0.016-0.033,0.036-0.049,0.065-0.084c0.744,0.193,4.78,1.021,9.333-0.707C142.783,52.782,138.695,56.198,138.695,56.198 M146.226,42.639c-0.03,0.043-4.209,5.029-12.117,4.244c3.598-4.791,2.18-10.021,2.18-10.021l-0.312,0.26 c0.61,5.857-3.009,8.943-3.035,8.979c0,0-4.383,1.584-9.032-1.705c2.621-1.316,4.109-3.205,4.948-4.893 c0.964,0.023,4.446-0.043,7.432-2.709h0.013c0.812-4.041-1.021-7.223-1.491-7.965c0.994-1.604,1.802-3.822,1.587-6.699 c5.31,2.379,6.159,7.104,6.159,7.129s-0.85,4.744-6.159,7.146l-0.091,0.396c0,0,5.186-1.35,7.511-6.867 C148.398,36.43,146.241,42.573,146.226,42.639 M148.031,37.688c-0.854-4.701-3.474-7.719-4.015-8.285 c0.021-0.051,0.032-0.094,0.057-0.145l0,0c-0.035-0.066-0.057-0.143-0.093-0.219c0.544-0.557,3.266-3.67,4.072-8.496 c5.13,3.34,6.098,8.674,6.098,8.674h0.012C154.126,29.352,153.111,34.473,148.031,37.688"></path> <path fill="#FFFFFF" d="M45.667,105.731c-1.934-0.27-4.446-1.258-6.232-0.42c-0.355,0.133-1.244,0.783-1.502,1.053 c0.178-0.27,0.178-0.193,0-0.008c0.165-0.262,0.367-0.539,0.636-0.811c1.347-1.357,3.296-2.473,5.168-2.066 c3.38,0.758,4.469,1.693,5.766,0.076C49.502,103.556,48.323,106.128,45.667,105.731"></path> <path fill="#FFFFFF" d="M212.425,106.796c-1.922-0.279-4.437-1.283-6.208-0.432c-0.367,0.152-1.263,0.777-1.524,1.047 c0.182-0.27,0.182-0.188,0-0.01c0.15-0.26,0.367-0.531,0.633-0.801c1.359-1.377,3.316-2.488,5.178-2.066 c3.364,0.75,4.462,1.695,5.748,0.076C216.251,104.61,215.087,107.183,212.425,106.796"></path> <path fill="#FFFFFF" d="M19.838,109.089c-0.199,0.523-0.327,0.76-0.403,0.844c-1.305,1.672-3.409,2.514-6.252,2.508 c-3.4-0.025-6.062-1.242-7.947-3.611c-1.698-2.104-2.548-4.793-2.53-7.992c0.009-2.809,0.878-5.111,2.548-6.809 c1.658-1.695,3.924-2.547,6.685-2.537c2.347,0.016,4.268,0.539,5.729,1.559c0.374,0.279,0.693,0.729,0.954,1.377 c0.088,0.287,0.177,0.623,0.262,0.953l0.417-0.018c0.122-0.768,0.211-1.4,0.255-1.848c0.014-0.318,0.014-0.811-0.026-1.469v-0.143 l-0.143-0.041c-0.475-0.152-0.918-0.264-1.275-0.355c-2.127-0.684-4.239-1.037-6.311-1.045c-2.958-0.018-5.553,0.91-7.694,2.775 c-2.484,2.168-3.772,5.146-3.789,8.875c-0.025,3.172,0.924,5.787,2.819,7.787c2.235,2.346,5.562,3.553,9.872,3.576 c1.217,0.008,2.467-0.1,3.71-0.277c1.056-0.178,1.709-0.328,2.012-0.465c0.093-0.033,0.217-0.074,0.352-0.117 c0.189-0.033,0.294-0.068,0.367-0.084l0.08-0.033l0.04-0.084c0.128-0.305,0.283-0.77,0.448-1.451 c0.131-0.787,0.211-1.385,0.241-1.799L19.838,109.089z"></path> <path fill="#FFFFFF" d="M95.155,113.14c-0.888-1.012-1.41-2.221-1.568-3.568l-1.741-14.842c-0.033-0.404-0.042-0.768-0.042-1.139 c0-0.488,0.121-0.818,0.322-1.004l1.171-0.734l-0.117-0.396c-1.157,0.084-1.912,0.111-2.246,0.111 c-0.385,0-1.009-0.053-1.845-0.129l-0.556-0.066l0.376,0.422c0.337,0.379,0.518,0.727,0.518,1.029c0,0.227-0.173,0.852-0.971,2.488 l-6.938,14.107l-6.778-14.885c-0.505-1.113-0.774-2.115-0.757-2.977v-0.254l-0.232,0.035c-0.625,0.092-1.124,0.111-1.499,0.111 c-0.479,0-1.198-0.045-2.134-0.129l-0.745-0.066l0.6,0.438c1.495,1.156,1.729,1.688,1.729,1.924c0,0.086-0.053,0.422-0.331,1.812 l-2.762,14.15c-0.341,1.756-0.513,2.32-0.604,2.48c-0.02,0.068-0.188,0.26-0.932,0.885l-0.505,0.432l0.66-0.053 c0.922-0.082,1.521-0.107,1.752-0.107c0.46,0,1.068,0.031,1.816,0.135l0.759,0.084l-0.617-0.473 c-0.821-0.633-0.89-0.895-0.89-0.961c0-0.938,0.077-1.789,0.219-2.496c0.221-1.158,1.103-5.621,2.666-13.418l8.188,17.965 l8.544-17.652l1.767,13.299c0.158,1.426,0.202,1.854,0.189,1.955c0,0.414-0.199,0.912-0.607,1.486l-0.27,0.379l0.468-0.043 c0.825-0.074,1.47-0.109,1.894-0.109c0.48,0,1.102,0.051,1.869,0.127l0.544,0.059L95.155,113.14z"></path> <path fill="#FFFFFF" d="M118.083,111.511c-0.228,0.229-0.469,0.396-0.666,0.506c-0.562,0.303-1.814,0.455-3.754,0.447l-2.879-0.023 l0.064-9.576l3.292,0.016c0.829,0,1.531,0.279,2.106,0.809l0.414,0.396l-0.056-0.572c-0.062-0.557-0.09-1.021-0.084-1.375 l0.009-2.135l-0.392,0.59c-0.427,0.668-1.102,0.979-2.051,0.979l-3.236-0.033l0.046-8.689c0.444-0.01,0.896-0.01,1.336,0 c1.881,0,3.369,0.076,3.741,0.178c0.589,0.303,1.013,0.539,1.229,0.76l0.431,0.404l-0.065-0.592 c-0.098-0.598-0.206-0.994-0.37-1.248c-0.347-0.488-0.728-0.734-1.11-0.734c-0.24,0-2.106,0-3.631,0.035 c-1.47,0.023-2.416,0.041-2.668,0.041c-0.434,0-1.089-0.059-1.909-0.135l-0.739-0.076l0.584,0.457 c0.392,0.293,0.657,0.631,0.766,0.961c0.117,0.287,0.138,0.828,0.138,1.594l-0.104,15.938c0,1.256-0.098,1.746-0.175,1.957 c-0.024,0.059-0.142,0.271-0.766,0.818l-0.498,0.414l0.65-0.041c0.963-0.076,1.615-0.104,1.905-0.104 c0.089,0,0.579,0.008,2.881,0.119c1.785,0.084,3.228,0.127,4.33,0.135c0.511,0,1.015-0.641,1.572-1.982L118.083,111.511z"></path> <path fill="#FFFFFF" d="M143.538,111.241c-0.341,0.322-0.633,0.592-0.821,0.752c-0.741,0.412-2.281,0.605-4.604,0.59 c-0.958,0-2.138-0.084-3.502-0.219l0.114-17.709c0-1.209,0.39-2.027,1.166-2.533l-0.137-0.389c-1.024,0.068-1.764,0.111-2.21,0.104 c-0.405,0-1.076-0.043-1.992-0.127l-0.135,0.387c0.715,0.455,1.051,1.301,1.051,2.531l-0.11,16.484 c-0.013,0.82-0.108,1.174-0.192,1.334c-0.033,0.086-0.199,0.297-0.869,0.92l-0.465,0.396l0.613-0.033 c1.057-0.076,1.723-0.117,2.023-0.117c0.915,0.008,2.38,0.066,4.349,0.15c2.041,0.094,3.399,0.154,4.158,0.154 c0.474,0,0.908-0.322,1.31-0.98c0.313-0.734,0.503-1.225,0.594-1.467L143.538,111.241z"></path> <path fill="#FFFFFF" d="M168.829,111.401c-0.36,0.32-0.645,0.582-0.82,0.758c-0.737,0.398-2.283,0.611-4.604,0.584 c-0.968-0.01-2.146-0.084-3.496-0.211l0.104-17.727c0.013-1.189,0.393-2.008,1.172-2.523l-0.126-0.387 c-1.033,0.066-1.781,0.117-2.224,0.092c-0.415,0-1.072-0.033-1.985-0.125l-0.141,0.404c0.7,0.438,1.054,1.291,1.054,2.523 l-0.104,16.484c0,0.811-0.122,1.166-0.206,1.334c-0.043,0.084-0.2,0.293-0.873,0.91l-0.452,0.414l0.61-0.041 c1.061-0.086,1.727-0.121,2.031-0.121c0.907,0,2.369,0.061,4.354,0.162c2.028,0.092,3.385,0.133,4.149,0.143 c0.474,0,0.891-0.312,1.295-0.986c0.323-0.725,0.514-1.207,0.606-1.461L168.829,111.401z"></path> <path fill="#FFFFFF" d="M186.104,113.712c-0.621-0.471-0.92-1.213-0.904-2.268l0.104-17.305c0.019-0.869,0.272-1.436,0.806-1.688 l-0.104-0.406c-0.755,0.076-1.383,0.119-1.821,0.119c-0.429-0.008-1.063-0.043-1.898-0.143l-0.105,0.414 c0.604,0.268,0.876,0.826,0.876,1.695l-0.11,17.32c-0.009,1.07-0.314,1.789-0.938,2.234l-0.657,0.473l0.799-0.084 c0.863-0.094,1.482-0.135,1.916-0.135c0.444,0,1.086,0.059,1.878,0.17l0.783,0.084L186.104,113.712z"></path> <path fill="#FFFFFF" d="M242.241,103.892c-1.482-1.189-2.958-2.371-4.42-3.543c-1.519-1.316-2.29-2.607-2.283-3.812 c0-0.928,0.332-1.764,0.997-2.432c0.666-0.699,1.481-1.035,2.491-1.02c0.722,0,1.452,0.16,2.14,0.506 c0.708,0.33,1.261,0.783,1.606,1.332c0.274,0.65,0.474,1.148,0.591,1.496l0.418-0.068c0.021-0.643,0.039-1.158,0.048-1.484 c0-0.332,0.027-0.762,0.089-1.275l0.019-0.17l-0.165-0.051c-0.378-0.133-0.568-0.193-0.65-0.242 c-3.373-1.436-6.041-1.199-7.751,0.691c-0.98,1.07-1.474,2.395-1.486,3.922c-0.003,1.588,0.812,3.072,2.397,4.43l4.36,3.248 c1.509,1.334,2.271,2.811,2.257,4.404c0,1.082-0.463,1.975-1.405,2.689c-0.852,0.686-1.745,1.006-2.641,1.006 c-1.51-0.008-2.727-0.379-3.616-1.104c-0.469-0.398-0.854-0.879-1.146-1.479c-0.115-0.277-0.21-0.566-0.294-0.826l-0.41,0.051 c0.022,1.131,0.082,1.967,0.171,2.514c0.108,0.607,0.239,0.979,0.44,1.172l0.115,0.135l0.142-0.09c0,0,0.042-0.027,0.175-0.027 c0.13,0.018,0.299,0.035,0.503,0.053c0.584,0.135,1.163,0.242,1.75,0.387c0.765,0.15,1.488,0.227,2.104,0.227 c1.621,0.01,3.019-0.613,4.167-1.812c1.132-1.217,1.717-2.607,1.729-4.193C244.688,106.946,243.879,105.396,242.241,103.892"></path> <path fill="#FFFFFF" d="M221.806,112.86c-0.354-0.328-0.72-0.867-1.058-1.586l-9.369-19.994l-9.708,19.877 c-0.514,1.02-1.354,1.906-2.474,2.605l0.135,0.389c0.812-0.066,1.542-0.1,2.137-0.1c0.479,0,1.185,0.041,2.089,0.135l0.547,0.049 l-0.37-0.404c-0.623-0.691-0.726-0.996-0.726-1.131c0-0.414,0.12-0.895,0.343-1.4l1.417-3.098l6.145-13.094l5.625,12.287 l0.395,0.875l1.229,3.131c0.228,0.582,0.35,1.104,0.35,1.561c0,0.32-0.206,0.633-0.587,0.938l-0.533,0.43l0.699-0.059 c0.921-0.076,1.688-0.119,2.239-0.119c0.526,0.008,1.508,0.066,2.949,0.152l0.121-0.387 C222.521,113.376,221.976,113.028,221.806,112.86"></path> <path fill="#FFFFFF" d="M54.568,111.806c-0.334-0.328-0.694-0.859-1.044-1.594l-9.376-19.973L34.44,110.11 c-0.508,1.014-1.35,1.906-2.465,2.607l0.129,0.387c0.817-0.076,1.546-0.117,2.144-0.117c0.478,0.01,1.18,0.053,2.086,0.143 l0.558,0.068l-0.385-0.428c-0.633-0.686-0.724-1-0.724-1.117c0-0.422,0.113-0.883,0.343-1.4l1.419-3.105l6.139-13.092l5.634,12.293 l0.396,0.875l1.223,3.113c0.232,0.6,0.356,1.107,0.333,1.57c0,0.328-0.183,0.641-0.554,0.938l-0.553,0.438l0.705-0.059 c0.925-0.084,1.674-0.109,2.229-0.109c0.535,0.008,1.518,0.057,2.951,0.133l0.128-0.387 C55.29,112.329,54.754,111.983,54.568,111.806"></path> <g> <path fill="#FFFFFF" d="M113.042,71.106c-0.27-0.48-0.847-0.752-1.725-0.752l-3.662-0.033l-0.064,11.862 c0,0.465,0.094,0.854,0.272,1.131c0,0,0.17,0.17,0.446,0.457c-0.52-0.051-0.978-0.094-1.324-0.094 c-0.359,0-0.802,0.025-1.319,0.076c0.496-0.236,0.757-0.76,0.768-1.57l0.078-11.862l-3.69-0.025c-0.818,0-1.386,0.254-1.706,0.76 c0.016-0.211,0.049-0.48,0.121-0.844c0.204-0.379,0.437-0.582,0.702-0.582c2.766,0.092,4.483,0.119,5.177,0.119 c2.105,0.008,3.79,0,5.062-0.027c0.281-0.033,0.503,0.137,0.715,0.508C112.991,70.397,113.059,70.692,113.042,71.106"></path> <path fill="#FFFFFF" d="M130.741,83.923c-0.42-0.068-0.819-0.102-1.206-0.102c-0.754,0-1.17,0.008-1.289,0.066 c0.271-0.236,0.451-0.43,0.508-0.574c0.129-0.26,0.211-0.656,0.211-1.197l0.037-5.618l-8.398-0.061l-0.04,5.51 c0,0.539,0.021,0.904,0.072,1.088c0.084,0.277,0.29,0.564,0.608,0.818c-0.457-0.061-0.887-0.084-1.285-0.102 c-0.32,0-0.82,0.035-1.495,0.076c0.332-0.195,0.573-0.404,0.69-0.676c0.144-0.27,0.219-0.682,0.219-1.281l0.045-10.184 c0.021-0.582,0-0.945-0.04-1.098c-0.076-0.328-0.274-0.605-0.582-0.842c0.537,0.049,0.94,0.084,1.243,0.084 c0.306,0,0.681-0.018,1.196-0.084c-0.247,0.254-0.398,0.455-0.462,0.631c-0.091,0.246-0.138,0.693-0.154,1.309l-0.016,4.092 l8.398,0.061l0.022-3.967c0-0.65-0.022-1.113-0.088-1.367c-0.08-0.26-0.239-0.498-0.51-0.709c0.521,0.061,0.907,0.104,1.204,0.104 c0.291,0,0.682-0.035,1.201-0.086c-0.292,0.193-0.479,0.414-0.549,0.684c-0.037,0.178-0.058,0.643-0.062,1.393l-0.069,10.192 c0,0.574,0.04,0.994,0.131,1.266C130.349,83.517,130.5,83.702,130.741,83.923"></path> <path fill="#FFFFFF" d="M143.879,82.833c-0.341,0.801-0.64,1.207-0.9,1.207c-0.73-0.008-1.664-0.018-2.814-0.084 c-1.152-0.051-1.792-0.084-1.876-0.084c-0.202,0-0.626,0.033-1.268,0.084c0.336-0.287,0.524-0.473,0.551-0.6 c0.077-0.203,0.13-0.633,0.13-1.324l0.058-10.403c0-0.516-0.024-0.869-0.086-1.07c-0.098-0.264-0.274-0.492-0.56-0.701 c0.549,0.059,0.973,0.092,1.259,0.092c0.166,0,0.75,0,1.736-0.033c1.009-0.01,1.564-0.016,1.715-0.016 c0.212,0,0.425,0.133,0.626,0.42c0.075,0.152,0.149,0.389,0.206,0.752c-0.148-0.152-0.434-0.32-0.848-0.523 c-0.374-0.102-1.319-0.135-2.836-0.109l-0.049,5.93l2.252,0.018c0.659,0.008,1.15-0.227,1.458-0.666v0.895 c0,0.236,0.007,0.555,0.044,0.92c-0.389-0.365-0.88-0.567-1.46-0.567l-2.294-0.016l-0.024,6.53l2.003,0.008 c1.287,0.008,2.137-0.102,2.518-0.295C143.571,83.118,143.717,82.993,143.879,82.833"></path> </g> <path fill="#FFFFFF" d="M170.637,147.114c0,0.803-0.658,1.467-1.464,1.467c-0.814,0-1.472-0.664-1.472-1.467 c0-0.811,0.657-1.469,1.472-1.469C169.979,145.646,170.637,146.304,170.637,147.114z"></path> <path fill="#FFFFFF" d="M78.807,147.114c0,0.803-0.652,1.467-1.462,1.467c-0.808,0-1.467-0.664-1.467-1.467 c0-0.811,0.659-1.469,1.467-1.469C78.155,145.646,78.807,146.304,78.807,147.114z"></path> <g> <g> <path fill="#FFFFFF" d="M99.484,152.464h-0.979l-2.447-8.834h-0.022l-2.409,8.834h-0.979l-3.491-10.799h1.044l2.912,9.127h0.023 l2.423-9.127h0.978l2.477,9.127h0.03l2.881-9.127h1.033L99.484,152.464z"></path> <path fill="#FFFFFF" d="M115.372,152.69c-3.33,0-5.797-2.377-5.797-5.627c0-3.256,2.467-5.635,5.797-5.635 c3.341,0,5.787,2.379,5.787,5.635C121.159,150.313,118.697,152.69,115.372,152.69z M120.179,147.063 c0-2.48-1.915-4.648-4.808-4.648c-2.9,0-4.814,2.168-4.814,4.648c0,2.473,1.914,4.65,4.814,4.65 C118.264,151.714,120.179,149.536,120.179,147.063z"></path> <path fill="#FFFFFF" d="M138.68,152.464h-1.135l-2.713-4.607h-4.703v4.607h-0.984v-10.799h6.61c2.438,0,3.15,1.924,3.15,3.035 c0,2.533-2.011,3.08-2.949,3.156L138.68,152.464z M134.89,146.88c1.365,0,3.037-0.146,3.037-2.18 c0-1.746-1.467-2.059-2.172-2.059h-5.626v4.238H134.89z"></path> <path fill="#FFFFFF" d="M152.615,141.665c2.991,0,4.769,2.852,4.769,5.398c0,2.43-1.777,5.4-4.769,5.4h-5.44v-10.799H152.615z M152.615,151.485c2.276,0,3.785-2.328,3.785-4.422c0-1.855-1.362-4.422-3.785-4.422h-4.467v8.844H152.615z"></path> </g> </g> </g> </svg> 